<svg width="154" height="77" viewBox="0 0 154 77" fill="none" xmlns="http://www.w3.org/2000/svg">
<path d="M31.3688 33.8858C29.3424 33.3793 28.076 31.6062 28.5192 29.5799C28.7725 28.5667 27.886 28.9467 27.1262 29.3899C26.113 30.0232 25.2898 31.3529 26.0497 32.4294C26.9995 33.8858 29.2791 34.3924 30.6722 35.2156C32.8885 36.4821 34.9148 38.3817 35.6114 40.9147C37.1311 46.4237 33.1418 51.6162 27.5694 52.0594C22.7569 52.376 17.9444 48.83 18.1977 43.7642C18.3876 39.2049 26.4296 39.2049 26.2396 43.7642C26.1763 44.5874 26.303 44.7773 26.7462 45.0939C26.8095 45.0306 26.9995 45.0306 26.9362 45.0939C26.9995 45.0939 27.0628 45.0939 27.0628 45.0939C27.8227 44.6507 28.266 43.1309 27.6327 42.0545C26.6829 40.6614 24.2766 40.0915 22.8835 39.2683C20.7939 38.0018 18.7676 36.2921 18.071 33.8225C16.488 28.4401 20.9205 23.5009 25.9863 22.2978C28.7092 21.6646 32.002 22.2345 34.155 24.1342C36.3712 26.0338 36.8778 28.6934 36.3079 31.4796C35.8647 33.5059 33.0785 34.2658 31.3688 33.8858ZM26.7462 45.1573H26.8095C26.7462 45.1573 26.7462 45.1573 26.7462 45.0939C26.7462 45.1573 26.7462 45.1573 26.7462 45.1573ZM24.0867 24.5141C24.5932 24.2608 24.2133 23.5643 23.7067 23.8176C22.5036 24.5141 21.3638 25.4639 20.4773 26.5404C19.5908 27.6802 18.9575 28.9467 18.6409 30.4031C18.3876 31.7962 18.5776 33.3159 19.2108 34.6457C19.5274 35.2789 19.9074 35.9122 20.414 36.4187C20.9205 36.9887 21.4271 37.4319 22.0603 37.8118C22.5036 38.1918 22.9469 37.4952 22.5036 37.1786C21.4271 36.4187 20.4773 35.4689 19.9074 34.2658C19.3375 33.126 19.2108 31.7962 19.4641 30.5297C19.7174 29.2633 20.2873 28.0602 21.1105 27.047C21.9337 26.0338 22.9469 25.1473 24.0867 24.5141ZM58.364 34.3291C58.7439 38.9517 57.9207 44.524 55.0079 48.3234C51.4618 53.0093 44.6863 53.3259 40.8869 48.7033C37.8475 44.9673 37.5942 39.2683 38.2274 34.709C39.0506 29.4533 41.3935 23.9442 46.9026 22.3611C47.4092 22.2345 47.9157 22.1712 48.4857 22.2345C48.6123 22.2345 48.8023 22.2345 48.9289 22.2345C55.4511 22.4878 57.9207 28.6301 58.364 34.3291ZM48.8023 29.3266C48.8656 29.4533 48.9289 29.5166 48.8023 29.3266V29.3266ZM48.6756 29.2C48.6756 29.2 48.7389 29.2 48.7389 29.2633C48.6756 29.2633 48.6756 29.2633 48.7389 29.2633C48.7389 29.2 48.6756 29.2 48.6756 29.2ZM47.5991 45.2206V45.1573C47.1559 45.2206 47.3458 45.2206 47.5991 45.2206ZM48.0424 45.2839C48.1057 45.3472 48.1057 45.3472 48.0424 45.2839V45.2839ZM47.9157 45.1573C47.9791 45.1573 48.0424 45.1573 48.1057 45.1573C48.0424 45.1573 47.9791 45.1573 47.9157 45.1573ZM50.1954 39.1416C50.3853 37.2419 50.3853 35.4056 50.2587 33.5692C50.2587 33.4426 50.1954 33.3159 50.1954 33.2526C50.1954 33.126 50.132 32.936 50.132 32.8094C50.0687 32.3661 49.9421 31.9862 49.8154 31.5429C49.6888 31.163 49.5621 30.783 49.4355 30.4031C49.3722 30.2765 49.3722 30.2131 49.3088 30.1498C49.3088 30.1498 49.3088 30.0865 49.2455 30.0232C49.1189 29.7699 48.9289 29.5799 48.8023 29.3266C48.6123 29.4533 48.4857 29.5166 48.4857 29.5799C48.4223 29.6432 48.359 29.7066 48.359 29.7066C48.2324 29.8965 48.0424 30.0865 47.9157 30.2765C47.8524 30.4031 47.4725 31.0997 47.4725 31.0363C47.0926 31.9228 46.7759 32.8094 46.586 33.7592C46.4593 34.2025 46.3327 34.709 46.2694 35.2156C46.2694 35.089 46.1427 36.1655 46.0794 36.4187C46.0161 37.4319 45.9527 38.5084 46.0161 39.5216C46.0794 39.9648 46.0794 40.4081 46.1427 40.8513C46.1427 41.0413 46.2694 41.6745 46.1427 40.978C46.206 41.2313 46.206 41.4212 46.2694 41.6112C46.4593 42.3711 46.6493 43.0676 46.9659 43.7642C47.0292 43.8908 47.2192 44.2707 47.2825 44.3974C47.4092 44.5874 47.5358 44.714 47.5991 44.904C47.6625 44.904 47.6625 44.9673 47.7258 44.9673C47.7258 44.9673 47.7258 45.0306 47.7891 45.0939C47.8524 45.0939 47.8524 45.0939 47.8524 45.0939C47.9157 44.9673 47.9791 44.904 47.9791 44.904C47.9791 44.904 48.0424 44.904 48.0424 44.8407C48.2324 44.6507 48.4223 44.3974 48.6123 44.1441C48.6756 43.9541 48.9289 43.5109 48.9289 43.4476C49.2455 42.751 49.4988 42.0545 49.6888 41.2946C49.8154 40.8513 49.9421 40.4081 50.0687 39.9648C50.0687 39.7115 50.132 39.5216 50.1954 39.3316V39.2683C50.1954 39.2683 50.1954 39.2049 50.1954 39.1416ZM57.6674 37.1786C57.7307 35.6589 57.6674 34.1391 57.4775 32.6194C57.2242 31.163 56.8442 29.7066 56.1477 28.3135C55.4511 26.9204 54.5013 25.6539 53.1082 24.8307C52.475 24.5141 52.2217 25.274 52.7283 25.5273C53.9314 26.2238 54.8179 27.3636 55.4511 28.6301C56.0844 29.9598 56.4643 31.3529 56.6543 32.746C57.0975 35.5956 56.9709 38.5717 56.1477 41.3579C56.021 41.9278 56.7809 42.2444 56.9076 41.6112C57.3508 40.1548 57.6041 38.635 57.6674 37.1786ZM76.267 22.0445C78.1666 22.0445 80.2563 23.4376 80.3196 25.5273C80.3196 27.6169 78.1666 29.01 76.267 29.01C73.9873 28.9467 71.7077 29.01 69.4281 29.01C69.3648 31.4163 69.3015 33.8858 69.3015 36.3554C70.2513 36.3554 71.2011 36.3554 72.2143 36.3554C74.1773 36.3554 76.077 37.6852 76.2036 39.8382C76.3303 41.9278 74.0507 43.3209 72.2143 43.2576C71.2011 43.2576 70.2513 43.2576 69.3015 43.2576C69.3015 44.1441 69.3015 45.0306 69.3015 45.8538C69.9347 46.487 70.378 47.2469 70.4413 48.1967C70.5046 49.1466 69.9347 50.0964 69.2381 50.6663C68.4783 51.2996 67.4018 51.6795 66.3886 51.6795C65.5021 51.6795 64.6156 51.6795 63.7291 51.6795C61.7028 51.6795 59.8031 50.2864 59.7398 48.1967C59.6764 47.3102 60.2463 46.3604 60.8796 45.7905C61.0062 45.6638 61.1329 45.6005 61.2595 45.4739C61.1329 38.8883 61.2595 32.3028 61.5128 25.7172C61.5128 25.6539 61.5128 25.6539 61.5128 25.6539C61.5128 25.5906 61.5128 25.5906 61.5128 25.5273C61.5128 23.4376 63.6024 22.1078 65.5021 22.1078C69.1115 22.0445 72.6576 22.0445 76.267 22.0445ZM62.8426 42.3711C62.7792 39.7115 62.7792 36.9887 62.7792 34.3291C62.8426 31.6062 62.9692 28.9467 63.1592 26.2871C63.2225 25.7172 62.3993 25.6539 62.3993 26.2238C62.146 28.8834 62.0827 31.6062 62.0194 34.2658C61.956 36.9887 61.956 39.7115 62.0194 42.3711C62.0827 42.941 62.8426 42.941 62.8426 42.3711ZM101.788 35.089C101.028 37.8118 99.3183 40.1548 97.1654 41.9278C98.7484 43.1943 100.015 44.7773 100.711 46.677C101.471 48.64 99.6983 50.5397 97.9253 50.9829C95.8989 51.4262 93.6826 50.4764 92.9861 48.5134C92.9228 48.3867 92.8594 48.3234 92.8594 48.2601C92.8594 48.2601 92.7961 48.1967 92.7328 48.0701C92.6695 48.0068 92.1629 47.3736 92.2895 47.5002C92.0996 47.3102 91.3397 46.7403 90.9598 46.487C90.8331 46.3604 90.7065 46.2971 90.5798 46.2337C90.5798 46.4237 90.5798 46.677 90.5798 46.867C91.1497 47.4369 91.4663 48.1967 91.5297 49.0199C91.593 49.9065 91.0231 50.9196 90.3265 51.4895C89.5667 52.1228 88.4902 52.5027 87.477 52.5027C86.5905 52.5027 85.704 52.5027 84.8175 52.5027C82.7912 52.5027 80.8915 51.1096 80.8282 49.0199C80.7648 48.1334 81.3347 47.1836 81.968 46.6137C82.1579 46.4237 82.2846 46.2971 82.4745 46.2337C82.2212 40.4714 82.3479 34.7724 82.8545 29.0733C82.6012 28.8834 82.4112 28.6301 82.2212 28.3135C81.1448 26.7304 81.778 24.2608 83.6143 23.5643C87.3504 22.2345 91.403 21.158 95.329 22.3611C100.838 24.1342 103.244 29.6432 101.788 35.089ZM84.3742 30.0865C84.4375 29.5166 83.6143 29.4533 83.551 30.0232C83.2977 32.6194 83.1078 35.2789 83.1078 37.8752C83.0444 40.5347 83.1078 43.1943 83.3611 45.8538C83.4244 46.3604 84.1842 46.2971 84.1842 45.7905C83.931 43.1309 83.8676 40.5347 83.8676 37.9385C83.931 35.2789 84.0576 32.6827 84.3742 30.0865ZM93.8093 29.8965C93.9359 30.2765 93.9359 30.0865 93.8093 29.8965V29.8965ZM92.8594 29.01C93.0494 29.0733 93.1127 29.1367 92.8594 29.01V29.01ZM94.1892 32.4927C94.1892 32.4294 94.1892 32.4294 94.1892 32.3661C94.1892 32.1128 94.1892 31.8595 94.1892 31.6696C94.1892 31.4163 94.1259 31.163 94.1259 30.9097C94.1259 30.9097 94.1259 30.9097 94.1259 30.8464C93.9993 30.5297 93.8726 30.1498 93.8093 29.8332C93.746 29.7066 93.6826 29.6432 93.6193 29.5799C92.8594 29.01 93.4293 29.3899 93.6193 29.5799C93.4927 29.4533 93.366 29.2633 93.2394 29.2C93.4293 29.2633 93.556 29.2633 93.2394 29.2C93.2394 29.1367 93.1761 29.1367 93.1761 29.1367C93.1127 29.0733 93.0494 29.0733 92.9861 29.0733C92.9228 29.0733 92.8594 29.01 92.7961 29.01C92.6695 28.9467 92.5428 28.8834 92.4162 28.8834C92.0996 28.82 91.1497 28.82 92.2262 28.82C91.9096 28.82 91.6563 28.82 91.3397 28.7567C91.2764 28.7567 91.0864 28.82 90.9598 28.82C90.6432 31.7962 90.5165 34.7724 90.4532 37.7485C90.5165 37.6852 90.5798 37.6852 90.6432 37.6219C90.7698 37.5586 90.8964 37.4952 91.0864 37.3686C91.2764 37.2419 91.4663 37.052 91.6563 36.9253C91.9096 36.7354 92.0996 36.5454 92.2895 36.3554L92.3529 36.2921C92.3529 36.2921 92.3529 36.2921 92.3529 36.2288C92.7328 35.7855 93.0494 35.3423 93.366 34.8357C93.366 34.7724 93.4293 34.7724 93.4293 34.709L93.4927 34.6457C93.556 34.3924 93.6826 34.2025 93.746 33.9492C93.9359 33.4426 93.9993 32.9993 94.1892 32.4927ZM96.0889 41.6112C99.0651 39.6482 101.091 36.2921 101.345 32.746C101.471 30.973 101.218 29.1367 100.395 27.5536C99.5716 25.9072 98.1785 24.6407 96.4688 23.8809C95.7723 23.6276 95.5823 24.3875 96.1522 24.6407C97.672 25.274 98.9384 26.4771 99.6983 27.9335C100.395 29.3899 100.711 31.0363 100.585 32.6827C100.268 35.9755 98.4318 39.1416 95.6456 40.9147C95.0757 41.2946 95.4557 41.9911 96.0889 41.6112ZM124.989 46.3604C125.622 46.9303 126.066 47.7535 126.129 48.7033C126.192 49.6532 125.622 50.603 124.989 51.1729C124.229 51.8061 123.09 52.1861 122.14 52.1861C121.253 52.1861 120.367 52.1861 119.48 52.1861C117.454 52.1861 115.554 50.8563 115.428 48.7033C115.364 47.8168 115.934 46.867 116.631 46.2971C116.694 46.1704 116.821 46.1071 116.947 46.0438C116.947 45.7905 116.947 45.5372 117.011 45.3472C115.491 45.3472 114.034 45.3472 112.578 45.3472C112.578 45.6005 112.578 45.9171 112.641 46.2337C113.338 46.8037 113.844 47.6902 113.908 48.7033C113.971 49.6532 113.401 50.603 112.705 51.1729C111.945 51.8061 110.868 52.1861 109.855 52.1861C108.969 52.1861 108.082 52.1861 107.196 52.1861C105.169 52.1861 103.27 50.793 103.206 48.7033C103.143 47.8168 103.713 46.867 104.346 46.2971C104.409 46.2337 104.473 46.1704 104.536 46.1071C104.409 41.7378 104.599 37.3686 105.486 33.0627C106.246 29.2 107.955 25.084 111.628 23.2477C115.491 21.2213 120.303 22.2978 122.583 26.0972C124.609 29.4533 124.989 33.6959 125.116 37.4952C125.243 40.4714 125.179 43.3842 124.989 46.3604ZM115.997 29.2C116.124 29.2633 116.124 29.2 115.997 29.2V29.2ZM115.301 29.0733C115.301 29.0733 115.238 29.0733 115.238 29.01C115.238 29.0733 115.238 29.0733 115.301 29.0733ZM115.238 29.01C115.048 28.6934 115.048 28.82 115.174 28.9467C115.174 29.01 115.238 29.01 115.238 29.01ZM112.768 38.3817C114.224 38.3817 115.681 38.3817 117.137 38.3817C117.137 38.2551 117.137 38.0651 117.074 37.8752C117.074 37.052 117.011 36.1655 116.947 35.3423C116.884 34.899 116.821 34.4557 116.821 34.0125C116.757 33.8225 116.757 33.6959 116.757 33.5059C116.757 33.5059 116.694 33.5059 116.694 33.4426C116.567 32.6827 116.441 31.9862 116.251 31.2263C116.124 30.973 116.061 30.6564 115.934 30.3398C115.934 30.2765 115.744 29.8332 115.681 29.6432C115.617 29.5799 115.554 29.4533 115.491 29.3899C115.428 29.4533 115.364 29.4533 115.301 29.5166C115.364 29.5166 114.921 30.0232 114.794 30.2131C114.731 30.3398 114.541 30.7197 114.541 30.7197C114.224 31.2896 114.034 31.9228 113.844 32.5561C113.275 34.2658 113.021 35.7855 112.895 37.3053C112.831 37.6852 112.768 38.0651 112.768 38.3817ZM123.533 41.5479C123.533 42.0545 124.356 42.0545 124.356 41.5479C124.356 39.1416 124.293 36.7987 124.039 34.3924C123.913 33.1893 123.786 31.9862 123.533 30.8464C123.216 29.6432 122.9 28.4401 122.203 27.3636C121.95 26.9204 121.317 27.4269 121.57 27.8069C122.14 28.7567 122.456 29.8965 122.71 30.973C122.963 32.1128 123.153 33.3159 123.28 34.4557C123.469 36.7987 123.533 39.1416 123.533 41.5479ZM149.999 45.7272C150.759 46.2971 151.202 47.1836 151.265 48.1967C151.328 49.1466 150.759 50.0964 150.125 50.6663C149.365 51.2996 148.226 51.6795 147.276 51.6795C146.389 51.6795 145.503 51.6795 144.616 51.6795C142.59 51.6795 140.69 50.2864 140.564 48.1967C140.5 47.3102 141.07 46.3604 141.767 45.7905C141.83 45.7272 141.893 45.6638 141.957 45.6005C141.957 45.2839 141.957 44.9673 141.957 44.6507C140.31 44.6507 138.727 44.6507 137.081 44.6507C137.081 45.0939 137.081 45.4739 137.081 45.8538C137.714 46.487 138.157 47.2469 138.221 48.1967C138.284 49.1466 137.714 50.0964 137.018 50.6663C136.258 51.2996 135.181 51.6795 134.168 51.6795C133.282 51.6795 132.395 51.6795 131.508 51.6795C129.482 51.6795 127.582 50.2864 127.519 48.1967C127.456 47.3102 128.026 46.3604 128.659 45.7905C128.786 45.6638 128.912 45.6005 129.039 45.4739C128.976 39.7115 128.976 33.8858 129.166 28.1235C128.406 27.5536 127.836 26.6037 127.836 25.5273C127.772 24.6407 128.342 23.6909 128.976 23.121C129.735 22.4245 130.812 22.1078 131.825 22.1078C132.712 22.1078 133.598 22.1078 134.485 22.1078C136.511 22.1078 138.411 23.4376 138.537 25.5273C138.601 26.4771 138.031 27.4269 137.334 27.9968L137.271 28.0602C137.144 31.2896 137.081 34.5191 137.081 37.7485C138.664 37.7485 140.31 37.7485 141.893 37.7485C141.957 34.5191 142.02 31.2263 142.083 27.9968C141.387 27.4269 140.944 26.5404 140.88 25.5273C140.817 24.6407 141.387 23.6909 142.02 23.121C142.78 22.4245 143.92 22.1078 144.87 22.1078C145.756 22.1078 146.643 22.1078 147.529 22.1078C149.555 22.1078 151.455 23.4376 151.582 25.5273C151.645 26.4771 151.075 27.4269 150.379 27.9968C150.315 28.0602 150.252 28.1235 150.189 28.1868C149.935 34.0125 149.872 39.9015 149.999 45.7272ZM130.559 44.8407C130.495 42.1178 130.495 39.4582 130.559 36.7987C130.559 34.0758 130.685 31.4163 130.875 28.7567C130.939 28.1868 130.179 28.1235 130.115 28.6934C129.862 31.3529 129.799 34.0758 129.735 36.7354C129.672 39.4582 129.672 42.1811 129.799 44.8407C129.799 45.4106 130.622 45.4106 130.559 44.8407ZM149.302 44.8407C149.239 39.4582 149.239 34.0758 149.492 28.6934C149.492 28.1235 148.732 28.1235 148.669 28.6934C148.479 34.0758 148.416 39.4582 148.479 44.8407C148.542 45.4106 149.302 45.4106 149.302 44.8407Z" fill="black"/>
<path d="M38.7155 10.6843C38.6467 10.9477 38.2451 10.9056 38.1965 10.653C37.8818 9.01637 37.7174 7.5998 36.3197 6.47781C35.402 5.74088 34.4494 5.62312 33.4261 5.45159C33.5281 5.60796 33.6203 5.77169 33.7002 5.94526C34.2896 5.90907 34.951 6.13235 35.3696 6.47678C35.4089 6.50895 35.3818 6.58826 35.3274 6.56369C34.9804 6.40963 34.643 6.267 34.2649 6.2065C34.107 6.1814 33.9529 6.18035 33.799 6.18454C33.9598 6.60682 34.0562 7.07584 34.0705 7.59889C34.0785 7.90706 33.6603 7.87115 33.5788 7.63316C32.2977 3.88825 27.7695 3.44782 24.4081 4.10024C21.5223 4.66025 19.1674 6.12647 17.0082 8.03992C17.1565 8.09308 17.3031 8.15062 17.4478 8.21226C18.2888 7.29784 19.4737 6.47503 20.7162 6.30556C20.7645 6.29882 20.7922 6.36555 20.7457 6.38863C19.6122 6.94876 18.6391 7.45938 17.7531 8.34565C17.9677 8.44777 18.1764 8.5633 18.3818 8.68566C18.5073 8.0062 19.2469 7.49875 19.8671 7.34381C19.9131 7.33224 19.9354 7.40049 19.8945 7.42118C19.6134 7.5637 19.3425 7.7676 19.1219 7.99368C18.8878 8.23353 18.7866 8.52322 18.5968 8.7881C18.591 8.7958 18.5816 8.79735 18.5747 8.80327C18.6708 8.86437 18.7652 8.92908 18.8587 8.99521C19.1902 8.69691 19.5398 8.41318 19.9071 8.16201C19.9506 8.13223 20.0079 8.19853 19.9759 8.23855C19.7115 8.56978 19.4166 8.88167 19.111 9.17745C19.7248 9.65001 20.2818 10.23 20.7616 10.9327C20.868 11.0881 20.6275 11.3033 20.485 11.1813C16.2896 7.58785 11.0276 7.83076 6.45867 10.7373C4.48805 11.9908 2.15837 14.115 2.78547 16.7292C3.53637 19.8585 6.9858 20.4369 9.60432 21.0845C9.94847 21.1695 9.79532 21.6389 9.49288 21.6491C8.18807 21.6926 6.79023 21.468 5.53892 20.9484C4.83981 22.0899 4.42914 23.0279 5.19271 24.4221C5.68896 25.3278 6.54669 26.078 7.51789 26.4443C7.66095 26.4982 7.80207 26.5426 7.94229 26.5807C7.1362 26.0287 6.46909 25.2318 6.09695 24.4535C6.08465 24.4275 6.12259 24.4082 6.13629 24.4331C6.59091 25.2322 7.25771 25.892 8.04535 26.3648C8.30758 26.5222 8.56769 26.632 8.83023 26.7201C9.04242 26.7303 9.25115 26.7257 9.45616 26.7032C9.20093 26.5757 8.96196 26.4342 8.75817 26.2936C7.96226 25.7436 7.36014 24.9735 7.05614 24.0544C7.03434 23.9885 7.14084 23.9542 7.16963 24.0146C7.58289 24.8813 8.17243 25.6203 8.98459 26.1445C9.33659 26.3717 9.68253 26.5007 10.033 26.5967C10.2097 26.5515 10.3836 26.4947 10.5551 26.4283C10.2846 26.3508 10.027 26.2413 9.80999 26.1274C9.0955 25.7523 8.56591 25.1495 8.26522 24.4036C8.24151 24.3442 8.32573 24.2987 8.35467 24.3578C8.67119 24.9954 9.17034 25.5063 9.79779 25.8446C10.2378 26.082 10.6635 26.1359 11.1055 26.1803C11.2179 26.1216 11.3294 26.0586 11.4394 25.9922C11.1876 25.9418 10.9408 25.8512 10.7516 25.7634C10.253 25.532 9.866 25.1794 9.57329 24.7177C9.53772 24.662 9.62684 24.6028 9.6673 24.6526C9.99573 25.0569 10.4168 25.3719 10.9064 25.5538C11.2281 25.6736 11.5525 25.6691 11.872 25.7063C11.9761 25.6331 12.0792 25.5568 12.1809 25.4779C11.8874 25.3893 11.6362 25.2402 11.3983 25.0427C11.3467 25.0001 11.3985 24.9144 11.4568 24.9537C11.7211 25.133 12.0309 25.2508 12.3462 25.3007C12.3639 25.3036 12.3817 25.3031 12.3992 25.3052C12.5596 25.1734 12.7171 25.0354 12.872 24.8929C12.727 24.5643 12.5865 24.2359 12.4515 23.9105C11.9876 23.6231 11.8291 23.1348 11.8679 22.6129C11.4602 22.1425 10.9737 21.7771 10.5262 21.3462C10.4809 21.3027 10.537 21.2454 10.5859 21.2553C10.9886 21.338 11.425 21.5716 11.8259 21.8912C11.8907 21.8306 11.9795 21.8012 12.0706 21.8088C12.2204 21.4549 12.4376 21.1257 12.6936 20.8776C13.3205 20.2702 14.1384 19.7962 14.9626 19.3665C14.3078 18.9513 13.6522 18.6263 12.8595 18.4497C12.8087 18.4382 12.831 18.3672 12.876 18.3661C13.7486 18.3469 14.6911 18.6044 15.3984 19.1431C15.776 18.9517 16.1484 18.7662 16.4972 18.5791C17.9956 17.7757 19.5253 16.9625 21.2087 16.6495C21.2698 16.6381 21.2947 16.7188 21.244 16.7489C19.6896 17.669 18.0275 18.3977 16.4674 19.3153C15.6377 19.8031 12.9216 21.0645 12.6413 22.4609C13.1018 23.1761 13.5522 23.8958 13.9668 24.6397C14.4074 25.4298 14.7536 26.5193 15.362 27.1859C17.1352 29.1303 20.4076 27.3803 22.41 26.5865C26.0677 25.1361 29.7082 23.6421 33.3509 22.1546C33.2977 22.0154 33.2549 21.8757 33.2236 21.7364C33.0037 21.8719 32.7345 21.9537 32.5042 22.0295C32.0324 22.1851 31.5552 22.2298 31.0621 22.2001C31.0143 22.1974 31.0077 22.1222 31.0563 22.1154C31.498 22.0523 31.9317 21.9483 32.3497 21.7904C32.625 21.6866 32.8894 21.495 33.1664 21.3834C33.1438 21.1744 33.1395 20.9652 33.151 20.7551C32.7598 21.0756 32.226 21.2762 31.7582 21.3234C31.6792 21.3312 31.6603 21.2297 31.7337 21.2047C32.0301 21.1026 32.3155 20.9889 32.583 20.824C32.8134 20.6822 32.9936 20.4987 33.1928 20.3259C33.2181 20.1379 33.2506 19.9487 33.2882 19.7589C32.9755 20.0179 32.4795 20.1354 32.1477 20.051C32.0893 20.0362 32.1024 19.9521 32.1543 19.9397C32.414 19.8782 32.6699 19.8182 32.9002 19.6761C33.0861 19.5614 33.2195 19.3876 33.3929 19.2638C33.4234 19.1259 33.4537 18.9873 33.4831 18.8485C33.3199 18.884 33.156 18.9122 33.0039 18.9388C32.9304 18.9516 32.8868 18.843 32.9593 18.8117C33.14 18.7327 33.3375 18.6446 33.5393 18.5751C33.5476 18.5327 33.5567 18.4901 33.5645 18.4473C34.2852 14.5877 29.427 14.7971 26.8053 14.8378C26.6786 14.8396 26.6644 14.6292 26.7898 14.6155C28.182 14.4634 30.302 14.2257 31.9965 14.66C32.1173 13.6611 32.4501 12.6045 32.7882 11.6778C32.804 11.6342 32.8724 11.6461 32.8689 11.6937C32.7947 12.6821 32.66 13.8024 32.3524 14.7663C32.9745 14.9708 33.5217 15.2813 33.9309 15.7413C34.0329 15.6831 34.1329 15.6213 34.2267 15.5456C34.4326 15.38 34.5861 15.1638 34.784 14.9913C34.8168 14.9629 34.8851 14.9858 34.8754 15.0354C34.8018 15.411 34.5032 15.7758 34.156 16.0277C34.9185 17.1868 34.3544 18.5597 34.0858 19.8925C34.1401 19.9106 34.1938 19.9321 34.2481 19.9489C34.3662 19.8173 34.4754 19.6762 34.5636 19.524C34.8241 19.0756 34.9123 18.5838 34.9301 18.072C34.932 18.0125 35.0207 18.0084 35.0324 18.065C35.1457 18.5997 35.036 19.1513 34.7942 19.6367C34.7364 19.7529 34.6559 19.897 34.5604 20.0373C34.8539 20.1178 35.148 20.1814 35.4412 20.2269C35.5667 19.9778 35.7126 19.7387 35.815 19.4761C35.9598 19.1041 36.0641 18.7132 36.1131 18.3171C36.1232 18.236 36.2431 18.2429 36.2402 18.3253C36.2163 18.9589 36.1026 19.7031 35.7592 20.2722C36.045 20.3034 36.3279 20.3131 36.6077 20.3073C36.827 19.9903 36.9973 19.6566 37.0824 19.2619C37.0952 19.2019 37.1914 19.2239 37.186 19.2824C37.1544 19.633 37.0565 19.9818 36.8943 20.2956C37.1335 20.279 37.3689 20.2461 37.6002 20.199C37.6687 19.9751 37.8248 19.7441 37.9516 19.57C37.9849 19.5245 38.0472 19.56 38.0358 19.6112C38.001 19.7715 37.9523 19.9628 37.8795 20.1342C39.091 19.8152 40.1569 19.0468 40.8842 17.6914C42.4165 14.835 41.0807 11.864 38.8135 9.95236C38.8068 10.1992 38.7782 10.4446 38.7155 10.6843Z" fill="white"/>
<path d="M38.7854 9.40771C38.6304 8.18177 37.8935 6.97133 37.0124 6.19302C36.0446 5.33782 34.3645 4.57441 33.0174 4.92678C31.4264 3.20157 28.3576 2.75678 26.081 2.89663C22.3848 3.12375 18.6487 4.83054 16.434 7.8576C12.4009 6.72789 7.35521 8.43158 4.3377 11.0306C2.46479 12.6437 1.04675 15.0688 2.01659 17.5648C2.56686 18.9808 3.6456 19.9999 4.94078 20.6684C4.18742 21.0175 3.82092 21.9643 3.81295 22.8278C3.79958 24.2471 4.63611 25.5846 5.70679 26.4548C7.90021 28.238 11.5949 28.0743 13.2177 25.6429C13.6974 26.644 14.2441 27.5967 14.9154 28.3334C16.1332 29.6697 17.9286 29.1154 19.4417 28.6403C24.4305 27.0725 29.2516 24.7134 34.0912 22.7381C34.2921 22.6562 34.3716 22.3658 34.2701 22.1844C33.9805 21.6671 33.9302 21.1137 33.985 20.5449C33.993 20.5424 34.002 20.5426 34.0099 20.5397C36.6305 22.1266 40.2467 20.6706 41.6311 18.0554C43.3171 14.8699 41.9469 10.9818 38.7854 9.40771ZM40.8835 17.6911C40.1563 19.0469 39.0903 19.815 37.8788 20.1339C37.9511 19.9622 38.0003 19.7713 38.0351 19.611C38.0461 19.5598 37.9841 19.5242 37.9508 19.5698C37.824 19.7439 37.6679 19.9749 37.5995 20.1987C37.3682 20.2458 37.1328 20.2787 36.8936 20.2953C37.0557 19.9812 37.1537 19.6328 37.1853 19.2822C37.1906 19.2237 37.0945 19.2016 37.0817 19.2617C36.9965 19.6564 36.8262 19.9901 36.6069 20.3071C36.3272 20.3129 36.0443 20.3035 35.7585 20.2719C36.1019 19.7029 36.2155 18.9583 36.2395 18.3251C36.2427 18.2426 36.1224 18.2358 36.1124 18.3168C36.0633 18.713 35.9591 19.1038 35.8142 19.4758C35.7119 19.7385 35.5661 19.9779 35.4405 20.2267C35.1473 20.1812 34.8532 20.1175 34.5597 20.037C34.6552 19.8967 34.7357 19.7526 34.7934 19.6364C35.0353 19.1511 35.1449 18.5995 35.0317 18.0648C35.0197 18.0086 34.9313 18.0127 34.9293 18.0717C34.9113 18.584 34.8233 19.0753 34.5628 19.5238C34.4747 19.676 34.3655 19.8171 34.2474 19.9486C34.1929 19.9314 34.1393 19.9104 34.0851 19.8923C34.3536 18.5591 34.9178 17.1866 34.1552 16.0274C34.5025 15.7756 34.8011 15.4108 34.8747 15.0352C34.8844 14.9856 34.8161 14.9627 34.7833 14.991C34.5854 15.1635 34.4319 15.3798 34.226 15.5454C34.1321 15.621 34.0321 15.6829 33.9302 15.741C33.5214 15.281 32.9742 14.9705 32.3517 14.766C32.6593 13.8021 32.794 12.6818 32.8681 11.6934C32.8717 11.6459 32.8037 11.6339 32.7875 11.6776C32.4494 12.6042 32.1162 13.661 31.9958 14.6598C30.3009 14.2256 28.1809 14.4632 26.789 14.6152C26.664 14.6289 26.678 14.8398 26.8046 14.8376C29.4266 14.7967 34.2844 14.5875 33.5638 18.4471C33.5559 18.4898 33.5468 18.5324 33.5385 18.5748C33.3371 18.6442 33.1396 18.7324 32.9585 18.8114C32.8861 18.8431 32.9298 18.9518 33.0032 18.9386C33.1548 18.9121 33.3192 18.8841 33.4824 18.8483C33.4529 18.9871 33.4226 19.1257 33.3921 19.2635C33.2187 19.3874 33.0854 19.5612 32.8994 19.6758C32.6691 19.818 32.4132 19.8779 32.1536 19.9395C32.1012 19.9519 32.0885 20.036 32.1469 20.0508C32.4787 20.1347 32.9747 20.0177 33.2874 19.7583C33.2498 19.9481 33.2172 20.1368 33.1919 20.3253C32.9929 20.4984 32.8126 20.6815 32.5822 20.8233C32.3146 20.9879 32.0292 21.102 31.7328 21.2041C31.6595 21.2295 31.6785 21.331 31.7574 21.3228C32.2248 21.2756 32.759 21.075 33.1502 20.7545C33.1387 20.9645 33.143 21.1737 33.1655 21.3828C32.8886 21.4943 32.6241 21.6859 32.3488 21.7898C31.9308 21.9476 31.4976 22.0516 31.0555 22.1147C31.0069 22.1215 31.0138 22.1966 31.0613 22.1998C31.5548 22.2295 32.0317 22.1849 32.5035 22.0293C32.7336 21.9531 33.0029 21.8713 33.2229 21.7361C33.2542 21.8754 33.2965 22.0148 33.3502 22.1543C29.7074 23.6415 26.067 25.1359 22.4092 26.5862C20.4073 27.38 17.1345 29.13 15.3613 27.1857C14.7532 26.5186 14.4066 25.4292 13.9661 24.6394C13.5511 23.8956 13.101 23.1758 12.6406 22.4606C12.921 21.0647 15.6371 19.8033 16.4666 19.3151C18.0268 18.3974 19.6889 17.6687 21.2432 16.7486C21.294 16.7186 21.2691 16.6378 21.2084 16.6492C19.5249 16.9621 17.9952 17.7753 16.4969 18.5788C16.1481 18.7659 15.7758 18.9517 15.398 19.1428C14.6912 18.604 13.7487 18.3469 12.8756 18.3657C12.8307 18.3669 12.8083 18.4379 12.8592 18.4494C13.6514 18.626 14.3075 18.9514 14.9623 19.3662C14.138 19.7955 13.3206 20.2698 12.6933 20.8773C12.4373 21.1254 12.22 21.4546 12.0703 21.8085C11.9791 21.8009 11.89 21.8307 11.8255 21.8909C11.4242 21.571 10.9882 21.3372 10.5856 21.2549C10.5367 21.2451 10.4806 21.3024 10.5258 21.3459C10.9734 21.7768 11.4599 22.1421 11.8676 22.6126C11.8283 23.1345 11.9874 23.6231 12.4512 23.9106C12.5858 24.2361 12.7267 24.5644 12.8717 24.893C12.7168 25.0354 12.5594 25.1735 12.399 25.3053C12.3814 25.3032 12.3636 25.3036 12.3459 25.3008C12.0306 25.2509 11.7208 25.1331 11.4565 24.9537C11.3983 24.9145 11.3464 25.0002 11.398 25.0428C11.6359 25.2402 11.8871 25.3893 12.1807 25.4779C12.079 25.5568 11.9758 25.6327 11.8718 25.7064C11.5523 25.6696 11.2278 25.6737 10.9062 25.5539C10.4166 25.3719 9.99547 25.0569 9.66703 24.6527C9.62658 24.6028 9.53746 24.662 9.57264 24.7178C9.86566 25.1791 10.2527 25.5321 10.751 25.7635C10.9406 25.8517 11.1873 25.9419 11.4388 25.9923C11.3288 26.0587 11.2172 26.1217 11.1048 26.1804C10.6632 26.1359 10.2376 26.082 9.79714 25.8447C9.1697 25.5065 8.67055 24.9955 8.35403 24.358C8.32477 24.2993 8.24056 24.3448 8.26458 24.4038C8.56488 25.1497 9.09484 25.7524 9.80933 26.1276C10.0259 26.2415 10.2839 26.3509 10.5544 26.4284C10.3829 26.4949 10.209 26.5513 10.0323 26.5968C9.68187 26.5009 9.33634 26.3717 8.98394 26.1447C8.17179 25.6204 7.58223 24.8814 7.16898 24.0148C7.14026 23.9547 7.0337 23.9886 7.0555 24.0546C7.35941 24.9732 7.9616 25.7437 8.75751 26.2938C8.96091 26.4345 9.20029 26.5758 9.45551 26.7033C9.25089 26.7257 9.04176 26.7304 8.82957 26.7202C8.56711 26.6325 8.30693 26.5223 8.0447 26.3649C7.25706 25.8922 6.59026 25.2323 6.13564 24.4332C6.12155 24.4085 6.0836 24.4277 6.09629 24.4536C6.46835 25.2315 7.13547 26.0285 7.94165 26.5809C7.80143 26.5428 7.66039 26.4987 7.51724 26.4445C6.54613 26.0785 5.68839 25.3284 5.19246 24.4222C4.42888 23.028 4.83955 22.0899 5.53866 20.9484C6.78997 21.468 8.1878 21.6927 9.49262 21.6491C9.79467 21.6391 9.94828 21.17 9.60406 21.0845C6.98553 20.437 3.5361 19.8585 2.7852 16.7293C2.15771 14.1152 4.48779 11.9908 6.45841 10.7374C11.0273 7.83082 16.2894 7.58791 20.4848 11.1814C20.6274 11.3037 20.8677 11.0882 20.7618 10.9326C20.2815 10.2301 19.7245 9.65007 19.1112 9.17743C19.4168 8.88204 19.7116 8.56976 19.976 8.23853C20.008 8.19851 19.9507 8.13182 19.9072 8.16199C19.5399 8.41316 19.19 8.69697 18.8589 8.99519C18.765 8.92915 18.6706 8.86482 18.5748 8.80325C18.5817 8.79733 18.5912 8.79578 18.5969 8.78808C18.7867 8.5232 18.8879 8.23313 19.1219 7.99328C19.3426 7.7672 19.6138 7.56321 19.8946 7.42078C19.9355 7.40009 19.9136 7.33174 19.8671 7.3434C19.247 7.49834 18.5073 8.0058 18.3818 8.68526C18.1765 8.5629 17.9677 8.44737 17.7532 8.34525C18.6387 7.45906 19.6119 6.94844 20.7457 6.38823C20.7922 6.36515 20.7646 6.29879 20.7163 6.30515C19.4738 6.47462 18.2889 7.29744 17.4479 8.21185C17.3028 8.1503 17.1565 8.09267 17.0083 8.0395C19.1675 6.12606 21.5224 4.66022 24.4081 4.09983C27.7695 3.44741 32.2977 3.88745 33.5789 7.63275C33.6603 7.87074 34.0786 7.90664 34.0705 7.59848C34.0566 7.07534 33.9602 6.60594 33.7991 6.18413C33.9529 6.17994 34.1074 6.1809 34.2649 6.20609C34.6431 6.26658 34.9803 6.40883 35.3275 6.56328C35.3821 6.58738 35.4093 6.50846 35.3697 6.47637C34.9511 6.13233 34.2896 5.90865 33.7002 5.94485C33.6204 5.77167 33.5282 5.60755 33.4261 5.45117C34.4494 5.6227 35.4017 5.74055 36.3198 6.4774C37.7171 7.59947 37.8819 9.01596 38.1965 10.6526C38.2452 10.9051 38.6468 10.9473 38.7156 10.6839C38.7779 10.4442 38.8068 10.1984 38.8126 9.95132C41.08 11.8637 42.4153 14.8348 40.8835 17.6911Z" fill="#FF9924"/>
<path d="M20.0584 59.0928C20.0324 59.0993 19.9967 59.1026 19.9512 59.1026C19.9123 59.1026 19.8798 59.1058 19.8538 59.1123L19.7077 59.1221C19.6947 59.1221 19.6785 59.1253 19.659 59.1318C19.646 59.1318 19.633 59.1318 19.62 59.1318C19.633 59.2227 19.633 59.3039 19.62 59.3754C19.607 59.4468 19.6038 59.5605 19.6103 59.7163C19.6168 59.8722 19.6103 60.0118 19.5908 60.1352C19.5713 60.2586 19.5648 60.395 19.5713 60.5444C19.5778 60.6353 19.5778 60.736 19.5713 60.8464C19.5648 60.9568 19.5551 61.0347 19.5421 61.0802L19.5129 61.7719V62.1031C19.4414 62.1161 19.3895 62.1226 19.357 62.1226C19.3245 62.1226 19.292 62.1193 19.2596 62.1128C19.2271 62.1128 19.1881 62.1128 19.1427 62.1128C19.1037 62.1128 19.042 62.1193 18.9576 62.1323C18.8666 62.1518 18.8082 62.1616 18.7822 62.1616C18.7627 62.1616 18.7368 62.1616 18.7043 62.1616C18.7043 62.1031 18.701 62.0674 18.6945 62.0544C18.6945 62.0414 18.6978 62.0024 18.7043 61.9375C18.6978 61.8855 18.6913 61.8141 18.6848 61.7232C18.6783 61.6258 18.6718 61.5251 18.6653 61.4212C18.6588 61.3108 18.6556 61.2036 18.6556 61.0997C18.6556 60.9893 18.6588 60.8951 18.6653 60.8172C18.6653 60.7652 18.6621 60.7035 18.6556 60.6321C18.6556 60.5606 18.6523 60.4892 18.6458 60.4178C18.6393 60.3918 18.6393 60.3593 18.6458 60.3203C18.6458 60.3138 18.6458 60.2619 18.6458 60.1645C18.6458 60.0605 18.6458 59.9501 18.6458 59.8332C18.6458 59.7163 18.6458 59.6092 18.6458 59.5118C18.6458 59.4143 18.6458 59.3591 18.6458 59.3461C18.6458 59.3267 18.6426 59.2844 18.6361 59.2195C18.6296 59.1481 18.6231 59.0734 18.6166 58.9954C18.6166 58.9175 18.6166 58.8461 18.6166 58.7811C18.6166 58.7162 18.6166 58.6739 18.6166 58.6545C18.6231 58.557 18.6263 58.4694 18.6263 58.3914C18.6328 58.3135 18.6328 58.2388 18.6263 58.1674C18.6263 58.0959 18.6231 58.0212 18.6166 57.9433C18.6101 57.8654 18.5971 57.7712 18.5776 57.6608C18.5711 57.6348 18.5679 57.5861 18.5679 57.5147C18.5744 57.4367 18.5776 57.3555 18.5776 57.2711C18.5841 57.1802 18.5874 57.099 18.5874 57.0276C18.5939 56.9496 18.5971 56.8977 18.5971 56.8717C18.5971 56.8392 18.6004 56.81 18.6069 56.784C18.6134 56.7515 18.6101 56.7126 18.5971 56.6671L18.6361 56.5989H19.5129C19.7986 56.5989 19.9935 56.5989 20.0974 56.5989C20.2078 56.5924 20.2987 56.5924 20.3702 56.5989C20.5585 56.6119 20.7241 56.6184 20.867 56.6184C21.0164 56.6184 21.1592 56.6119 21.2956 56.5989H21.8314C21.8639 56.6509 21.8704 56.7061 21.8509 56.7645C21.8379 56.8165 21.8314 56.8684 21.8314 56.9204V57.2516H21.773C21.708 57.2451 21.6431 57.2549 21.5782 57.2808C21.5132 57.3003 21.4483 57.3036 21.3833 57.2906C21.3119 57.2776 21.2177 57.2776 21.1008 57.2906C20.9839 57.3036 20.8897 57.3101 20.8183 57.3101L20.0779 57.349C20.0129 57.349 19.948 57.349 19.8831 57.349C19.8181 57.3425 19.7499 57.3458 19.6785 57.3588C19.6785 57.4172 19.6785 57.4627 19.6785 57.4952C19.685 57.5276 19.6882 57.5764 19.6882 57.6413C19.6947 57.7127 19.6947 57.7972 19.6882 57.8946C19.6882 57.992 19.6915 58.0764 19.698 58.1479L19.7369 58.3817C19.7434 58.3817 19.7662 58.3849 19.8051 58.3914C19.8441 58.3914 19.8863 58.3914 19.9318 58.3914C19.9837 58.3914 20.0292 58.3914 20.0682 58.3914C20.1071 58.3914 20.1298 58.3914 20.1363 58.3914C20.1688 58.3849 20.1948 58.3849 20.2143 58.3914C20.2403 58.3979 20.2662 58.4012 20.2922 58.4012L20.5065 58.4207C20.5715 58.4142 20.6397 58.4109 20.7111 58.4109C20.7891 58.4044 20.854 58.4012 20.906 58.4012C20.9189 58.4012 20.9319 58.4012 20.9449 58.4012C20.9644 58.3947 20.9806 58.3947 20.9936 58.4012C21.0066 58.4077 21.0164 58.4271 21.0229 58.4596C21.0294 58.4856 21.0294 58.5116 21.0229 58.5376L21.0326 58.6642C21.0391 58.6902 21.0391 58.7227 21.0326 58.7616C21.0261 58.8006 21.0261 58.8331 21.0326 58.859L21.0229 58.9662V59.0247C20.9969 59.0506 20.9871 59.0669 20.9936 59.0734C21.0001 59.0734 20.9871 59.0734 20.9547 59.0734C20.9157 59.0734 20.8508 59.0766 20.7598 59.0831C20.6754 59.0831 20.5877 59.0799 20.4968 59.0734L20.0584 59.0928ZM23.1837 58.4986C23.2292 58.4856 23.2844 58.4661 23.3494 58.4401C23.4143 58.4142 23.4792 58.4012 23.5442 58.4012C23.6286 58.4012 23.7066 58.4012 23.778 58.4012C23.8494 58.3947 23.9274 58.3914 24.0118 58.3914C24.0768 58.3914 24.1385 58.3947 24.1969 58.4012C24.2619 58.4012 24.3203 58.4109 24.3723 58.4304C24.3852 58.4304 24.4015 58.4336 24.421 58.4401C24.4405 58.4466 24.4664 58.4661 24.4989 58.4986C24.5639 58.5181 24.6256 58.5505 24.684 58.596C24.7425 58.6415 24.7944 58.6967 24.8399 58.7616C24.8918 58.8266 24.9373 58.8948 24.9763 58.9662C25.0217 59.0311 25.0607 59.0961 25.0932 59.161C25.1256 59.213 25.1451 59.2812 25.1516 59.3656C25.1646 59.4501 25.1808 59.5182 25.2003 59.5702C25.2003 59.6611 25.2036 59.7488 25.2101 59.8332C25.2231 59.9177 25.2296 60.0053 25.2296 60.0963C25.2296 60.2456 25.2263 60.3885 25.2198 60.5249C25.2133 60.6613 25.2101 60.8042 25.2101 60.9536L25.1906 61.275C25.1906 61.301 25.1776 61.3465 25.1516 61.4114C25.1256 61.4764 25.1094 61.5251 25.1029 61.5576C25.0834 61.6225 25.0574 61.7004 25.025 61.7914C24.9925 61.8758 24.9698 61.9245 24.9568 61.9375C24.9243 61.97 24.9016 61.9992 24.8886 62.0252C24.8756 62.0511 24.8626 62.0771 24.8496 62.1031C24.8431 62.1291 24.8301 62.1518 24.8106 62.1713C24.7977 62.1908 24.7717 62.2103 24.7327 62.2298C24.7002 62.2427 24.6613 62.2622 24.6158 62.2882C24.5703 62.3207 24.5281 62.3499 24.4892 62.3759C24.4567 62.3889 24.4405 62.3986 24.4405 62.4051C24.4405 62.4181 24.4177 62.4311 24.3723 62.4441L24.1969 62.483C24.119 62.496 24.054 62.4993 24.0021 62.4928C23.9566 62.4863 23.9046 62.483 23.8462 62.483C23.6643 62.483 23.4825 62.4473 23.3006 62.3759C23.2422 62.3759 23.1837 62.3629 23.1253 62.3369C23.0733 62.3109 23.0344 62.2817 23.0084 62.2492C22.9759 62.2233 22.9434 62.194 22.911 62.1616C22.8785 62.1356 22.846 62.1064 22.8136 62.0739C22.7616 62.0154 22.7194 61.957 22.6869 61.8985C22.6544 61.8401 22.622 61.7784 22.5895 61.7134C22.557 61.642 22.5213 61.5705 22.4823 61.4991C22.4434 61.4212 22.4174 61.3367 22.4044 61.2458C22.3914 61.0964 22.3784 60.9601 22.3654 60.8367C22.3589 60.7133 22.3557 60.5899 22.3557 60.4665V60.067C22.3492 60.0541 22.3459 60.0281 22.3459 59.9891C22.3459 59.9501 22.3492 59.9242 22.3557 59.9112C22.3557 59.8787 22.3557 59.8462 22.3557 59.8138C22.3622 59.7748 22.3687 59.7391 22.3752 59.7066C22.3817 59.6546 22.3849 59.6027 22.3849 59.5507C22.3849 59.4988 22.4011 59.4468 22.4336 59.3948C22.4271 59.4078 22.4304 59.3981 22.4434 59.3656C22.4628 59.3267 22.4823 59.2877 22.5018 59.2487C22.5213 59.2033 22.5375 59.1643 22.5505 59.1318C22.5635 59.0993 22.57 59.0864 22.57 59.0928L22.6382 58.9662C22.6577 58.9467 22.6772 58.924 22.6966 58.898C22.7161 58.872 22.7421 58.8428 22.7746 58.8103C22.8136 58.7779 22.8623 58.7356 22.9207 58.6837C22.9857 58.6317 23.0733 58.57 23.1837 58.4986ZM23.8949 60.1158C23.8689 60.1158 23.8429 60.1287 23.817 60.1547C23.7975 60.1807 23.7845 60.2034 23.778 60.2229C23.7325 60.3203 23.7098 60.4015 23.7098 60.4665C23.7098 60.6418 23.7715 60.7587 23.8949 60.8172C23.9274 60.8172 23.9534 60.8074 23.9728 60.7879C23.9988 60.762 24.0118 60.736 24.0118 60.71C24.0118 60.6451 24.0183 60.5704 24.0313 60.4859C24.0508 60.4015 24.0443 60.3138 24.0118 60.2229C23.9793 60.1904 23.9599 60.1645 23.9534 60.145C23.9469 60.1255 23.9274 60.1158 23.8949 60.1158ZM26.7513 58.4986C26.7968 58.4856 26.852 58.4661 26.917 58.4401C26.9819 58.4142 27.0469 58.4012 27.1118 58.4012C27.1962 58.4012 27.2742 58.4012 27.3456 58.4012C27.417 58.3947 27.495 58.3914 27.5794 58.3914C27.6444 58.3914 27.7061 58.3947 27.7645 58.4012C27.8295 58.4012 27.8879 58.4109 27.9399 58.4304C27.9529 58.4304 27.9691 58.4336 27.9886 58.4401C28.0081 58.4466 28.034 58.4661 28.0665 58.4986C28.1315 58.5181 28.1932 58.5505 28.2516 58.596C28.3101 58.6415 28.362 58.6967 28.4075 58.7616C28.4594 58.8266 28.5049 58.8948 28.5439 58.9662C28.5893 59.0311 28.6283 59.0961 28.6608 59.161C28.6932 59.213 28.7127 59.2812 28.7192 59.3656C28.7322 59.4501 28.7484 59.5182 28.7679 59.5702C28.7679 59.6611 28.7712 59.7488 28.7777 59.8332C28.7907 59.9177 28.7972 60.0053 28.7972 60.0963C28.7972 60.2456 28.7939 60.3885 28.7874 60.5249C28.7809 60.6613 28.7777 60.8042 28.7777 60.9536L28.7582 61.275C28.7582 61.301 28.7452 61.3465 28.7192 61.4114C28.6932 61.4764 28.677 61.5251 28.6705 61.5576C28.651 61.6225 28.625 61.7004 28.5926 61.7914C28.5601 61.8758 28.5374 61.9245 28.5244 61.9375C28.4919 61.97 28.4692 61.9992 28.4562 62.0252C28.4432 62.0511 28.4302 62.0771 28.4172 62.1031C28.4107 62.1291 28.3977 62.1518 28.3783 62.1713C28.3653 62.1908 28.3393 62.2103 28.3003 62.2298C28.2678 62.2427 28.2289 62.2622 28.1834 62.2882C28.1379 62.3207 28.0957 62.3499 28.0568 62.3759C28.0243 62.3889 28.0081 62.3986 28.0081 62.4051C28.0081 62.4181 27.9853 62.4311 27.9399 62.4441L27.7645 62.483C27.6866 62.496 27.6216 62.4993 27.5697 62.4928C27.5242 62.4863 27.4723 62.483 27.4138 62.483C27.2319 62.483 27.0501 62.4473 26.8683 62.3759C26.8098 62.3759 26.7513 62.3629 26.6929 62.3369C26.6409 62.3109 26.602 62.2817 26.576 62.2492C26.5435 62.2233 26.511 62.194 26.4786 62.1616C26.4461 62.1356 26.4136 62.1064 26.3812 62.0739C26.3292 62.0154 26.287 61.957 26.2545 61.8985C26.222 61.8401 26.1896 61.7784 26.1571 61.7134C26.1246 61.642 26.0889 61.5705 26.0499 61.4991C26.011 61.4212 25.985 61.3367 25.972 61.2458C25.959 61.0964 25.946 60.9601 25.933 60.8367C25.9265 60.7133 25.9233 60.5899 25.9233 60.4665V60.067C25.9168 60.0541 25.9135 60.0281 25.9135 59.9891C25.9135 59.9501 25.9168 59.9242 25.9233 59.9112C25.9233 59.8787 25.9233 59.8462 25.9233 59.8138C25.9298 59.7748 25.9363 59.7391 25.9428 59.7066C25.9493 59.6546 25.9525 59.6027 25.9525 59.5507C25.9525 59.4988 25.9687 59.4468 26.0012 59.3948C25.9947 59.4078 25.998 59.3981 26.011 59.3656C26.0304 59.3267 26.0499 59.2877 26.0694 59.2487C26.0889 59.2033 26.1051 59.1643 26.1181 59.1318C26.1311 59.0993 26.1376 59.0864 26.1376 59.0928L26.2058 58.9662C26.2253 58.9467 26.2448 58.924 26.2643 58.898C26.2837 58.872 26.3097 58.8428 26.3422 58.8103C26.3812 58.7779 26.4299 58.7356 26.4883 58.6837C26.5533 58.6317 26.6409 58.57 26.7513 58.4986ZM27.4625 60.1158C27.4365 60.1158 27.4106 60.1287 27.3846 60.1547C27.3651 60.1807 27.3521 60.2034 27.3456 60.2229C27.3001 60.3203 27.2774 60.4015 27.2774 60.4665C27.2774 60.6418 27.3391 60.7587 27.4625 60.8172C27.495 60.8172 27.521 60.8074 27.5404 60.7879C27.5664 60.762 27.5794 60.736 27.5794 60.71C27.5794 60.6451 27.5859 60.5704 27.5989 60.4859C27.6184 60.4015 27.6119 60.3138 27.5794 60.2229C27.5469 60.1904 27.5275 60.1645 27.521 60.145C27.5145 60.1255 27.495 60.1158 27.4625 60.1158ZM32.2576 58.6155C32.2641 58.4596 32.2771 58.2778 32.2966 58.0699C32.316 57.8556 32.3355 57.6705 32.355 57.5147C32.342 57.4172 32.342 57.3198 32.355 57.2224C32.368 57.1185 32.3713 57.0178 32.3648 56.9204C32.3648 56.8814 32.3648 56.8425 32.3648 56.8035C32.3713 56.758 32.3745 56.7158 32.3745 56.6768C32.407 56.521 32.4232 56.3619 32.4232 56.1995C32.4232 56.0371 32.4394 55.8585 32.4719 55.6637V55.5468C32.6018 55.5793 32.722 55.6085 32.8324 55.6345C32.9493 55.6539 33.0694 55.6637 33.1928 55.6637C33.1603 55.7611 33.1409 55.8585 33.1344 55.9559C33.1279 56.0534 33.1246 56.1475 33.1246 56.2385C33.1246 56.4268 33.1149 56.6151 33.0954 56.8035C33.0824 56.9853 33.0759 57.1704 33.0759 57.3588C33.0759 57.3978 33.0727 57.44 33.0662 57.4854C33.0597 57.5244 33.0564 57.5634 33.0564 57.6023C33.0629 57.6543 33.0629 57.7192 33.0564 57.7972C33.0564 57.8751 33.0564 57.9563 33.0564 58.0407C33.0564 58.1251 33.0564 58.2063 33.0564 58.2843C33.0629 58.3622 33.0727 58.4271 33.0857 58.4791C33.0662 58.635 33.0597 58.7941 33.0662 58.9565C33.0792 59.1123 33.0824 59.2682 33.0759 59.4241C33.0629 59.5345 33.0597 59.6416 33.0662 59.7456C33.0727 59.843 33.0759 59.9469 33.0759 60.0573C33.0759 60.1677 33.0759 60.2781 33.0759 60.3885C33.0824 60.4989 33.0857 60.6093 33.0857 60.7198C33.0857 60.8302 33.0759 60.9633 33.0564 61.1192C33.037 61.2685 33.0305 61.3984 33.037 61.5088C33.037 61.6647 33.0305 61.8011 33.0175 61.918C33.011 62.0349 33.0077 62.1583 33.0077 62.2882C33.0077 62.3467 32.9915 62.3824 32.959 62.3954C32.9265 62.4148 32.8746 62.4246 32.8031 62.4246C32.7122 62.4376 32.631 62.4408 32.5596 62.4343C32.4882 62.4278 32.407 62.4246 32.316 62.4246C32.2511 62.4246 32.2121 62.4116 32.1991 62.3856C32.1927 62.3596 32.1894 62.3337 32.1894 62.3077V62.1323C32.1829 62.1258 32.1764 62.1161 32.1699 62.1031C32.1634 62.0901 32.1569 62.0804 32.1504 62.0739C32.1439 62.0739 32.1374 62.0706 32.131 62.0641C32.0985 62.0966 32.053 62.1193 31.9946 62.1323C31.9361 62.1453 31.8777 62.1681 31.8192 62.2005C31.7218 62.2655 31.6114 62.3109 31.488 62.3369C31.3711 62.3629 31.2477 62.3759 31.1178 62.3759C31.0269 62.3759 30.9457 62.3726 30.8742 62.3661C30.8093 62.3661 30.7476 62.3531 30.6891 62.3272C30.6567 62.3272 30.6339 62.3142 30.621 62.2882C30.6145 62.2687 30.595 62.259 30.5625 62.259C30.4326 62.194 30.319 62.1258 30.2215 62.0544C30.1241 61.9894 30.0299 61.9115 29.939 61.8206C29.8416 61.7232 29.7669 61.6258 29.715 61.5283C29.6695 61.4309 29.6143 61.3173 29.5493 61.1874C29.5234 61.0964 29.5039 61.0055 29.4909 60.9146C29.4844 60.8172 29.4649 60.723 29.4324 60.6321C29.4324 60.5022 29.4357 60.3788 29.4422 60.2619C29.4552 60.1385 29.4909 60.0313 29.5493 59.9404C29.5818 59.778 29.6435 59.6351 29.7344 59.5118C29.8254 59.3884 29.9325 59.2812 30.0559 59.1903C30.1209 59.1253 30.1956 59.0734 30.28 59.0344C30.3709 58.9954 30.4651 58.9597 30.5625 58.9272C30.6274 58.9272 30.6989 58.9272 30.7768 58.9272C30.8613 58.9207 30.9359 58.9013 31.0009 58.8688C31.0918 58.8688 31.173 58.872 31.2444 58.8785C31.3224 58.8785 31.41 58.8948 31.5075 58.9272C31.5334 58.9597 31.5724 58.9824 31.6244 58.9954C31.6763 59.0084 31.7185 59.0311 31.751 59.0636C31.8095 59.0961 31.8712 59.1286 31.9361 59.161C32.0011 59.187 32.066 59.213 32.131 59.239C32.1634 59.213 32.1797 59.174 32.1797 59.1221C32.1797 59.0636 32.1959 58.9987 32.2284 58.9272C32.2284 58.8948 32.2316 58.8525 32.2381 58.8006C32.2511 58.7486 32.2576 58.6869 32.2576 58.6155ZM31.1178 59.8138C30.9944 59.8787 30.9002 59.9794 30.8353 60.1158C30.7768 60.2456 30.7476 60.3723 30.7476 60.4957C30.7476 60.5671 30.7573 60.6223 30.7768 60.6613C30.7963 60.7003 30.806 60.749 30.806 60.8074C30.806 60.9048 30.8353 60.986 30.8937 61.051C30.9522 61.1159 31.0269 61.1841 31.1178 61.2556C31.1957 61.3205 31.3029 61.3205 31.4393 61.2556C31.4977 61.1841 31.5627 61.1159 31.6341 61.051C31.712 60.9795 31.751 60.8821 31.751 60.7587C31.7835 60.6288 31.79 60.5152 31.7705 60.4178C31.751 60.3203 31.725 60.2229 31.6926 60.1255C31.6601 60.0346 31.6016 59.9599 31.5172 59.9014C31.4328 59.843 31.3419 59.8138 31.2444 59.8138H31.1178ZM36.9054 59.6384C36.8989 59.5734 36.8989 59.5118 36.9054 59.4533C36.9184 59.3948 36.9249 59.3364 36.9249 59.2779C36.9249 59.174 36.9216 59.0766 36.9152 58.9857C36.9152 58.8883 36.9152 58.7876 36.9152 58.6837V58.2258C36.9152 58.1933 36.9119 58.1609 36.9054 58.1284C36.9054 58.0894 36.9022 58.0537 36.8957 58.0212V57.1152C36.9022 57.0373 36.9022 56.9431 36.8957 56.8327C36.8957 56.7158 36.8957 56.6411 36.8957 56.6087C36.8957 56.5892 36.8924 56.5697 36.8859 56.5502C36.8794 56.5307 36.8794 56.5145 36.8859 56.5015C36.9184 56.5015 36.9509 56.4982 36.9833 56.4918C37.0223 56.4853 37.071 56.482 37.1295 56.482C37.1814 56.4755 37.2334 56.469 37.2853 56.4625C37.3373 56.456 37.3958 56.4528 37.4607 56.4528H37.8991C37.951 56.4528 37.9965 56.456 38.0355 56.4625C38.0744 56.4625 38.1264 56.469 38.1913 56.482C38.1978 56.4885 38.2043 56.4918 38.2108 56.4918C38.2173 56.4982 38.2368 56.5015 38.2693 56.5015C38.3083 56.4885 38.3635 56.4853 38.4349 56.4918C38.5128 56.4982 38.5908 56.5047 38.6687 56.5112C38.7207 56.5177 38.7694 56.5307 38.8148 56.5502C38.8603 56.5697 38.8993 56.5794 38.9317 56.5794C38.9447 56.5794 38.9772 56.5924 39.0292 56.6184C39.0811 56.6379 39.1363 56.6639 39.1948 56.6963C39.2532 56.7223 39.3052 56.7483 39.3506 56.7743C39.4026 56.7938 39.4383 56.8067 39.4578 56.8132C39.5422 56.8457 39.6202 56.8879 39.6916 56.9399C39.7695 56.9853 39.828 57.0373 39.867 57.0958C39.9254 57.1347 39.9676 57.1867 39.9936 57.2516C40.0196 57.3101 40.0521 57.3653 40.091 57.4172C40.1105 57.4432 40.1235 57.4757 40.13 57.5147C40.1365 57.5536 40.1527 57.5893 40.1787 57.6218C40.2112 57.6673 40.2339 57.7355 40.2469 57.8264C40.2664 57.9108 40.2761 58.0018 40.2761 58.0992C40.2826 58.1966 40.2826 58.2973 40.2761 58.4012C40.2696 58.4986 40.2631 58.5863 40.2566 58.6642C40.2436 58.7291 40.2307 58.7908 40.2177 58.8493C40.2047 58.9013 40.1917 58.963 40.1787 59.0344C40.1722 59.0669 40.156 59.1026 40.13 59.1416C40.1105 59.1805 40.0943 59.2162 40.0813 59.2487C40.0293 59.3721 39.9449 59.4923 39.828 59.6092L39.7403 59.7066C39.7143 59.7196 39.6916 59.7358 39.6721 59.7553C39.6526 59.7748 39.6299 59.7943 39.6039 59.8138C39.5715 59.8462 39.5325 59.8722 39.487 59.8917C39.4481 59.9112 39.4123 59.9371 39.3799 59.9696C39.2889 59.9696 39.211 59.9859 39.1461 60.0183C39.0876 60.0508 39.0194 60.0541 38.9415 60.0281C38.8765 60.0281 38.8181 60.0378 38.7661 60.0573C38.7142 60.0703 38.6622 60.0768 38.6103 60.0768H38.5518C38.5518 60.1093 38.5875 60.1645 38.659 60.2424C38.7304 60.3203 38.7824 60.3918 38.8148 60.4567C38.8668 60.5087 38.9123 60.5574 38.9512 60.6028C38.9967 60.6418 39.0454 60.6905 39.0973 60.749C39.1818 60.8269 39.2435 60.8919 39.2824 60.9438C39.3214 60.9893 39.3831 61.051 39.4675 61.1289C39.5065 61.1614 39.552 61.2263 39.6039 61.3238C39.6624 61.4147 39.7111 61.4764 39.7501 61.5088C39.789 61.5673 39.8118 61.6063 39.8183 61.6258C39.8312 61.6452 39.8507 61.668 39.8767 61.6939C39.9287 61.7654 39.9709 61.8303 40.0033 61.8888C40.0358 61.9407 40.0715 61.9927 40.1105 62.0447C40.078 62.1031 40.0326 62.1616 39.9741 62.22C39.9157 62.285 39.841 62.3434 39.7501 62.3954C39.7371 62.3759 39.7176 62.3564 39.6916 62.3369C39.6656 62.3239 39.6461 62.3044 39.6332 62.2785C39.6202 62.2655 39.5747 62.2265 39.4968 62.1616C39.4253 62.0966 39.3636 62.0349 39.3117 61.9765C39.2792 61.931 39.224 61.8725 39.1461 61.8011C39.0746 61.7232 38.9934 61.6452 38.9025 61.5673C38.8116 61.4894 38.7304 61.4114 38.659 61.3335C38.5875 61.2491 38.5323 61.1841 38.4933 61.1387C38.4739 61.1192 38.4414 61.0899 38.3959 61.051C38.3505 61.0055 38.3018 60.9633 38.2498 60.9243C38.1978 60.8789 38.1491 60.8367 38.1037 60.7977C38.0582 60.7522 38.0257 60.7198 38.0063 60.7003C37.9933 60.7133 37.9835 60.7262 37.977 60.7392C37.977 60.7457 37.9738 60.7555 37.9673 60.7685C37.9608 60.7814 37.9575 60.7944 37.9575 60.8074C37.9575 60.9373 37.951 61.0607 37.9381 61.1776C37.9316 61.288 37.9283 61.3984 37.9283 61.5088C37.9283 61.5673 37.9251 61.629 37.9186 61.6939C37.9186 61.7524 37.9186 61.8206 37.9186 61.8985V62.2395C37.9056 62.2395 37.8829 62.2395 37.8504 62.2395C37.8179 62.246 37.7822 62.2525 37.7432 62.259C37.6718 62.272 37.6003 62.2752 37.5289 62.2687C37.4639 62.2687 37.399 62.2687 37.3341 62.2687C37.2496 62.2687 37.1782 62.2687 37.1197 62.2687C37.0678 62.2687 37.0158 62.2557 36.9639 62.2298C36.9314 62.2298 36.9119 62.2298 36.9054 62.2298C36.8989 62.2298 36.8794 62.2135 36.847 62.181L36.8567 61.4114L36.8762 61.2848L36.8567 60.973L36.8762 59.9794C36.8892 59.8949 36.8924 59.8332 36.8859 59.7943C36.8859 59.7553 36.8924 59.7033 36.9054 59.6384ZM38.6005 58.4986C38.6135 58.4207 38.62 58.3427 38.62 58.2648C38.62 58.1804 38.6167 58.1057 38.6103 58.0407C38.6103 58.0018 38.5973 57.9758 38.5713 57.9628C38.5518 57.9303 38.5323 57.9076 38.5128 57.8946C38.4998 57.8816 38.4836 57.8686 38.4641 57.8556C38.4187 57.8167 38.3699 57.7874 38.318 57.7679C38.266 57.742 38.2141 57.7225 38.1621 57.7095C38.1426 57.7095 38.1264 57.7225 38.1134 57.7485C38.1069 57.7614 38.1037 57.7712 38.1037 57.7777V58.7714H38.2693C38.3018 58.7389 38.3342 58.7227 38.3667 58.7227C38.3992 58.7162 38.4284 58.6967 38.4544 58.6642C38.4933 58.6317 38.5226 58.609 38.5421 58.596C38.568 58.5765 38.5875 58.5441 38.6005 58.4986ZM43.8683 60.1645C43.8683 60.1969 43.8521 60.2294 43.8196 60.2619C43.8001 60.2814 43.7709 60.2944 43.7319 60.3008C43.693 60.3073 43.6572 60.3106 43.6248 60.3106C43.5793 60.3236 43.5241 60.3301 43.4591 60.3301C43.3942 60.3301 43.339 60.3301 43.2935 60.3301C43.2026 60.3301 43.1344 60.3333 43.089 60.3398C43.0435 60.3398 42.9688 60.3463 42.8649 60.3593L42.2804 60.408V60.5249C42.2804 60.5964 42.2901 60.6678 42.3096 60.7392C42.3291 60.8042 42.3648 60.8724 42.4168 60.9438C42.4492 60.9958 42.4882 61.0445 42.5337 61.0899C42.5791 61.1354 42.6246 61.1646 42.6701 61.1776C42.709 61.1906 42.7447 61.2036 42.7772 61.2166C42.8097 61.2296 42.8389 61.2426 42.8649 61.2556C42.8974 61.2621 42.9266 61.2621 42.9526 61.2556C43.1279 61.2556 43.2546 61.2361 43.3325 61.1971C43.4169 61.1581 43.5176 61.1094 43.6345 61.051C43.6605 61.051 43.6865 61.038 43.7124 61.012C43.7449 60.986 43.7676 60.9698 43.7806 60.9633C43.8131 60.9503 43.8586 60.9178 43.917 60.8659C43.982 60.8139 44.0307 60.7814 44.0631 60.7685C44.0826 60.7814 44.0891 60.8269 44.0826 60.9048C44.0761 60.9763 44.0794 61.0445 44.0924 61.1094V61.2166V61.4114C44.0599 61.4504 44.0339 61.4796 44.0144 61.4991C44.0014 61.5121 43.9885 61.5251 43.9755 61.5381C43.969 61.5511 43.956 61.5673 43.9365 61.5868C43.917 61.6063 43.8878 61.6355 43.8488 61.6745C43.7319 61.7914 43.6085 61.8693 43.4786 61.9083C43.4072 61.9472 43.3293 61.9765 43.2448 61.9959C43.1604 62.0089 43.0922 62.0252 43.0402 62.0447C43.0078 62.0511 42.9785 62.0544 42.9526 62.0544C42.9266 62.0609 42.9006 62.0641 42.8746 62.0641H42.7967C42.6733 62.0641 42.5531 62.0609 42.4362 62.0544C42.3193 62.0544 42.1959 62.0219 42.0661 61.957C42.0206 61.9635 41.9556 61.9505 41.8712 61.918C41.7933 61.8855 41.7413 61.8531 41.7153 61.8206C41.6439 61.7816 41.579 61.7329 41.5205 61.6745C41.4685 61.616 41.4101 61.5641 41.3451 61.5186C41.2542 61.4536 41.1893 61.3854 41.1503 61.314C41.1113 61.2426 41.0756 61.1679 41.0431 61.0899C41.0107 61.0315 40.9814 60.9665 40.9555 60.8951C40.9295 60.8237 40.9035 60.7522 40.8775 60.6808C40.8775 60.6093 40.8743 60.5411 40.8678 60.4762C40.8678 60.4113 40.8678 60.3463 40.8678 60.2814V59.9209C40.8678 59.804 40.8905 59.6644 40.936 59.502C40.9879 59.3396 41.0496 59.2 41.1211 59.0831C41.1406 59.0571 41.1633 59.0311 41.1893 59.0052C41.2088 58.9792 41.2315 58.9532 41.2575 58.9272C41.2899 58.9013 41.3224 58.872 41.3549 58.8396C41.3744 58.8331 41.3939 58.8233 41.4133 58.8103C41.4393 58.7973 41.475 58.7779 41.5205 58.7519C41.54 58.7389 41.5627 58.7162 41.5887 58.6837C41.6212 58.6512 41.6634 58.6285 41.7153 58.6155C41.7868 58.5895 41.855 58.5635 41.9199 58.5376C41.9849 58.5051 42.0336 58.4888 42.0661 58.4888C42.1115 58.4888 42.1927 58.4921 42.3096 58.4986C42.433 58.5051 42.5499 58.5116 42.6603 58.5181C42.7188 58.5246 42.7675 58.5343 42.8064 58.5473C42.8454 58.5603 42.8746 58.5668 42.8941 58.5668C42.9461 58.5733 42.9883 58.5798 43.0208 58.5863C43.0597 58.5928 43.0987 58.6025 43.1377 58.6155C43.2546 58.6545 43.339 58.6967 43.391 58.7421C43.4494 58.7811 43.4981 58.8233 43.5371 58.8688C43.5631 58.9013 43.5858 58.9402 43.6053 58.9857C43.6313 59.0247 43.6572 59.0604 43.6832 59.0928C43.7157 59.1318 43.7449 59.187 43.7709 59.2585C43.8034 59.3234 43.8261 59.3884 43.8391 59.4533C43.8521 59.5053 43.8618 59.5734 43.8683 59.6579C43.8748 59.7423 43.8781 59.817 43.8781 59.8819C43.8781 59.9469 43.8748 59.9956 43.8683 60.0281C43.8683 60.0605 43.8683 60.106 43.8683 60.1645ZM43.0305 59.5994C43.0305 59.5864 43.0305 59.5637 43.0305 59.5312C43.0305 59.4923 43.024 59.4663 43.011 59.4533C42.9591 59.3689 42.8844 59.3202 42.787 59.3072C42.696 59.2877 42.6148 59.2844 42.5434 59.2974C42.4979 59.3104 42.4687 59.3267 42.4557 59.3461C42.4427 59.3656 42.4233 59.3948 42.3973 59.4338C42.3843 59.4468 42.3745 59.4598 42.3681 59.4728C42.3616 59.4858 42.3518 59.4988 42.3388 59.5118C42.3258 59.5247 42.3161 59.5442 42.3096 59.5702C42.3096 59.5897 42.3064 59.6092 42.2999 59.6287C42.2869 59.6611 42.2804 59.6839 42.2804 59.6968C42.2804 59.7098 42.2869 59.7423 42.2999 59.7943C42.3258 59.8073 42.3745 59.8202 42.446 59.8332C42.5239 59.8397 42.6019 59.843 42.6798 59.843C42.7642 59.843 42.8422 59.8397 42.9136 59.8332C42.9915 59.8202 43.0435 59.8073 43.0695 59.7943C43.076 59.7878 43.0695 59.7715 43.05 59.7456C43.037 59.7131 43.0305 59.6644 43.0305 59.5994ZM46.8162 61.5381C46.8812 61.4796 46.9299 61.4179 46.9624 61.353C46.9948 61.2815 47.0111 61.1971 47.0111 61.0997C47.0111 61.0412 46.9948 60.9828 46.9624 60.9243C46.9299 60.8659 46.8812 60.8204 46.8162 60.7879C46.6604 60.7295 46.5012 60.671 46.3389 60.6126C46.1765 60.5541 46.0012 60.5087 45.8128 60.4762C45.7219 60.4437 45.6245 60.4113 45.5206 60.3788C45.4231 60.3463 45.3095 60.3138 45.1796 60.2814C44.9198 60.158 44.7574 59.9501 44.6925 59.6579C44.6925 59.5345 44.6925 59.4143 44.6925 59.2974C44.6925 59.1805 44.7217 59.0604 44.7802 58.937C44.8191 58.8461 44.8516 58.7811 44.8776 58.7421C44.9101 58.6967 44.9393 58.6642 44.9653 58.6447C44.9977 58.6187 45.027 58.5993 45.0529 58.5863C45.0854 58.5668 45.1211 58.5408 45.1601 58.5083C45.3095 58.4499 45.4361 58.4077 45.54 58.3817C45.6504 58.3492 45.7836 58.3167 45.9395 58.2843C46.0044 58.2518 46.0661 58.2323 46.1246 58.2258C46.1895 58.2193 46.2512 58.2161 46.3097 58.2161H46.8357C46.9331 58.2161 47.0241 58.2161 47.1085 58.2161C47.1929 58.2096 47.2806 58.2096 47.3715 58.2161C47.5144 58.2226 47.6475 58.2356 47.7709 58.255C47.8943 58.2745 48.0372 58.3005 48.1996 58.333C48.349 58.3525 48.4561 58.3752 48.5211 58.4012C48.5081 58.4336 48.4951 58.4856 48.4821 58.557C48.4756 58.6285 48.4691 58.6999 48.4626 58.7714C48.4626 58.7844 48.4594 58.7973 48.4529 58.8103C48.4529 58.8168 48.4529 58.8266 48.4529 58.8396C48.4529 58.872 48.4431 58.8915 48.4237 58.898C48.4107 58.9045 48.3944 58.9045 48.3749 58.898C48.362 58.8915 48.3457 58.885 48.3262 58.8785C48.2158 58.8655 48.1022 58.859 47.9853 58.859C47.8684 58.859 47.7515 58.8623 47.6346 58.8688C47.5177 58.8753 47.4007 58.8883 47.2838 58.9078C47.1669 58.9272 47.0533 58.9435 46.9429 58.9565C46.8909 58.9694 46.8422 58.9824 46.7967 58.9954C46.7513 59.0019 46.7058 59.0117 46.6604 59.0247C46.6084 59.0376 46.5597 59.0539 46.5142 59.0734C46.4753 59.0928 46.4298 59.1188 46.3778 59.1513C46.3129 59.2292 46.2674 59.3007 46.2415 59.3656C46.209 59.4436 46.1927 59.5215 46.1927 59.5994C46.1798 59.6319 46.1798 59.6839 46.1927 59.7553C46.2057 59.8202 46.2317 59.8754 46.2707 59.9209C46.3551 60.0118 46.4331 60.0703 46.5045 60.0963C46.6279 60.1287 46.7448 60.158 46.8552 60.1839C46.9721 60.2099 47.076 60.2359 47.1669 60.2619C47.1994 60.2619 47.2351 60.2684 47.2741 60.2814C47.3131 60.2944 47.3488 60.3008 47.3813 60.3008C47.5112 60.3138 47.6281 60.3366 47.732 60.369C47.8359 60.395 47.9495 60.4307 48.0729 60.4762C48.1639 60.5087 48.2548 60.5444 48.3457 60.5834C48.4431 60.6158 48.5373 60.6613 48.6282 60.7198C48.6997 60.8172 48.7516 60.9016 48.7841 60.973C48.8231 61.0445 48.8588 61.1289 48.8913 61.2263V61.4796C48.8913 61.5446 48.8783 61.6063 48.8523 61.6647C48.8263 61.7232 48.7971 61.7686 48.7646 61.8011C48.6997 61.97 48.573 62.1161 48.3847 62.2395C48.2613 62.3304 48.1314 62.4051 47.995 62.4636C47.8651 62.5285 47.7222 62.574 47.5664 62.5999C47.3455 62.6714 47.1215 62.7104 46.8942 62.7168C46.6734 62.7298 46.4395 62.7201 46.1927 62.6876L45.6569 62.6389C45.5985 62.6324 45.5303 62.6227 45.4524 62.6097C45.3744 62.5967 45.2965 62.5772 45.2186 62.5512C45.1081 62.5188 45.027 62.4993 44.975 62.4928C44.9295 62.4928 44.9036 62.4863 44.8971 62.4733C44.8906 62.4603 44.8841 62.4473 44.8776 62.4343C44.8711 62.4278 44.8678 62.4213 44.8678 62.4148C44.8354 62.3434 44.8159 62.2752 44.8094 62.2103C44.8029 62.1518 44.7834 62.0771 44.7509 61.9862C44.738 61.9537 44.7282 61.9245 44.7217 61.8985C44.7152 61.8725 44.7087 61.8466 44.7022 61.8206V61.7914C44.7022 61.7784 44.699 61.7686 44.6925 61.7621C44.6925 61.7556 44.6957 61.7459 44.7022 61.7329C44.7347 61.7329 44.7607 61.7362 44.7802 61.7427C44.8061 61.7491 44.8354 61.7524 44.8678 61.7524C44.9458 61.7719 45.0335 61.7914 45.1309 61.8108C45.2348 61.8303 45.316 61.8401 45.3744 61.8401C45.4329 61.8401 45.4978 61.8433 45.5693 61.8498C45.6407 61.8498 45.7219 61.8498 45.8128 61.8498C45.8907 61.8563 45.9719 61.8596 46.0564 61.8596C46.1408 61.8596 46.2252 61.8433 46.3097 61.8108C46.3291 61.7914 46.3616 61.7719 46.4071 61.7524C46.4525 61.7329 46.5012 61.7134 46.5532 61.6939C46.6052 61.668 46.6539 61.6452 46.6993 61.6258C46.7513 61.5998 46.7903 61.5705 46.8162 61.5381ZM51.5234 61.7914C51.5234 61.8628 51.5202 61.9375 51.5137 62.0154C51.5137 62.0934 51.5169 62.1681 51.5234 62.2395C51.5234 62.2785 51.5234 62.3337 51.5234 62.4051C51.5234 62.483 51.5202 62.5415 51.5137 62.5805C51.5202 62.6064 51.5137 62.6292 51.4942 62.6487C51.4747 62.6746 51.4585 62.6941 51.4455 62.7071H51.1922C51.1597 62.7071 51.1207 62.7039 51.0753 62.6974C51.0363 62.6974 51.0006 62.6974 50.9681 62.6974C50.9421 62.7104 50.9064 62.7168 50.861 62.7168C50.8155 62.7168 50.7668 62.7168 50.7148 62.7168C50.6694 62.7168 50.6239 62.7136 50.5784 62.7071C50.5395 62.7071 50.5167 62.7071 50.5103 62.7071C50.4778 62.6746 50.4583 62.6519 50.4518 62.6389C50.4518 62.6324 50.4518 62.6129 50.4518 62.5805V61.6452L50.4323 61.0705L50.4518 60.4178L50.4421 59.8527L50.4031 59.3851C50.3252 59.3851 50.231 59.3884 50.1206 59.3948C50.0102 59.4013 49.9257 59.3981 49.8673 59.3851C49.7569 59.3656 49.6692 59.3624 49.6043 59.3754C49.5458 59.3819 49.4711 59.3851 49.3802 59.3851V58.7616H49.4386C49.4711 58.7616 49.4971 58.7616 49.5166 58.7616C49.5426 58.7551 49.562 58.7551 49.575 58.7616C49.6075 58.7876 49.653 58.7973 49.7114 58.7908C49.7764 58.7779 49.8056 58.7649 49.7991 58.7519C49.8705 58.7454 49.9127 58.7421 49.9257 58.7421C49.9452 58.7421 49.9842 58.7421 50.0426 58.7421C50.0946 58.7421 50.1693 58.7454 50.2667 58.7519C50.3706 58.7519 50.4388 58.7486 50.4713 58.7421C50.4713 58.7421 50.4713 58.7227 50.4713 58.6837C50.4713 58.6447 50.4713 58.5993 50.4713 58.5473C50.4713 58.4953 50.4713 58.4401 50.4713 58.3817C50.4713 58.3232 50.4713 58.2778 50.4713 58.2453C50.4843 58.1219 50.4908 58.0115 50.4908 57.9141C50.4973 57.8102 50.5038 57.6933 50.5103 57.5634C50.5167 57.4724 50.52 57.3848 50.52 57.3003C50.52 57.2159 50.52 57.1282 50.52 57.0373C50.52 56.9464 50.5232 56.836 50.5297 56.7061C50.5427 56.5697 50.546 56.4495 50.5395 56.3456C50.5395 56.3131 50.533 56.2937 50.52 56.2872C50.5135 56.2742 50.5103 56.2514 50.5103 56.219C50.5103 56.1865 50.5135 56.1638 50.52 56.1508C50.5265 56.1313 50.546 56.1216 50.5784 56.1216C50.6369 56.1216 50.6986 56.1248 50.7635 56.1313C50.8285 56.1378 50.8902 56.141 50.9486 56.141C51.0461 56.141 51.1337 56.141 51.2117 56.141C51.2961 56.141 51.3643 56.1443 51.4163 56.1508C51.5137 56.1638 51.5884 56.1768 51.6403 56.1898C51.6403 56.1898 51.6403 56.206 51.6403 56.2385C51.6403 56.2644 51.6403 56.3002 51.6403 56.3456C51.6403 56.3846 51.6371 56.4268 51.6306 56.4723C51.6306 56.5177 51.6306 56.5599 51.6306 56.5989C51.6241 56.7613 51.6208 56.9042 51.6208 57.0276C51.6208 57.1445 51.6241 57.2841 51.6306 57.4465C51.6306 57.5179 51.6273 57.5926 51.6208 57.6705C51.6208 57.7485 51.6241 57.8231 51.6306 57.8946C51.6306 57.9141 51.6273 57.9563 51.6208 58.0212C51.6208 58.0862 51.6176 58.1576 51.6111 58.2356C51.6046 58.307 51.5981 58.3752 51.5916 58.4401C51.5851 58.5051 51.5819 58.5473 51.5819 58.5668C51.5819 58.5993 51.5884 58.6285 51.6014 58.6545C51.6143 58.6804 51.6273 58.6934 51.6403 58.6934C51.6728 58.6934 51.715 58.6999 51.767 58.7129C51.8189 58.7194 51.8611 58.7227 51.8936 58.7227C51.9261 58.7227 51.9586 58.7291 51.991 58.7421C52.03 58.7486 52.082 58.7519 52.1469 58.7519C52.2054 58.7519 52.2638 58.7551 52.3223 58.7616C52.3872 58.7616 52.4554 58.7616 52.5268 58.7616C52.5398 58.7616 52.5528 58.7649 52.5658 58.7714C52.5788 58.7714 52.5918 58.7714 52.6048 58.7714H52.6437C52.6762 58.8688 52.6924 58.9792 52.6924 59.1026C52.6924 59.226 52.6762 59.3202 52.6437 59.3851H52.5853C52.4554 59.3981 52.3287 59.4111 52.2054 59.4241C52.082 59.4306 51.9553 59.4338 51.8254 59.4338C51.7929 59.4338 51.754 59.4371 51.7085 59.4436C51.663 59.4436 51.6241 59.4436 51.5916 59.4436C51.5916 59.4565 51.5884 59.4728 51.5819 59.4923C51.5819 59.5053 51.5819 59.5182 51.5819 59.5312V59.5702V59.6579C51.5819 59.7163 51.5819 59.7715 51.5819 59.8235C51.5884 59.869 51.5884 59.9177 51.5819 59.9696L51.6014 60.4859L51.5624 60.9243C51.5624 60.9568 51.5591 61.0153 51.5526 61.0997C51.5526 61.1776 51.5494 61.2653 51.5429 61.3627C51.5429 61.4536 51.5397 61.5413 51.5332 61.6258C51.5267 61.7037 51.5234 61.7589 51.5234 61.7914ZM56.7732 62.2687L56.705 62.2785C56.6725 62.285 56.6498 62.285 56.6368 62.2785C56.6303 62.2785 56.6011 62.2785 56.5491 62.2785C56.5426 62.2785 56.5231 62.2817 56.4907 62.2882C56.4582 62.2947 56.4225 62.3012 56.3835 62.3077C56.3445 62.3142 56.3023 62.3142 56.2569 62.3077C56.2114 62.3077 56.1757 62.3012 56.1497 62.2882C56.1172 62.2882 56.0945 62.285 56.0815 62.2785C56.0685 62.272 56.0458 62.2687 56.0133 62.2687C55.9808 62.2427 55.9613 62.2038 55.9549 62.1518C55.9549 62.0999 55.9549 62.0576 55.9549 62.0252V61.7816L55.8769 61.8888L55.7016 62.0544C55.6366 62.0999 55.5814 62.1356 55.5359 62.1616C55.497 62.194 55.4483 62.2265 55.3898 62.259C55.2924 62.3174 55.1852 62.3564 55.0683 62.3759C54.9579 62.3954 54.854 62.4051 54.7566 62.4051C54.6592 62.4051 54.5553 62.3856 54.4449 62.3467C54.3409 62.3077 54.2468 62.272 54.1623 62.2395C54.1364 62.233 54.1104 62.22 54.0844 62.2005C54.0649 62.1875 54.0454 62.1745 54.0259 62.1616C53.987 62.1291 53.9415 62.0966 53.8896 62.0641C53.8441 62.0317 53.8051 61.9992 53.7727 61.9667C53.7532 61.9537 53.7337 61.9407 53.7142 61.9278C53.7012 61.9083 53.6817 61.892 53.6558 61.879C53.6233 61.8596 53.5941 61.8271 53.5681 61.7816C53.5356 61.7102 53.4934 61.642 53.4414 61.577C53.396 61.5056 53.357 61.4244 53.3245 61.3335C53.305 61.2621 53.2791 61.1939 53.2466 61.1289C53.2141 61.064 53.1979 61.0023 53.1979 60.9438C53.1979 60.9113 53.1946 60.8561 53.1881 60.7782C53.1816 60.7003 53.1784 60.6451 53.1784 60.6126C53.1784 60.5541 53.1784 60.5087 53.1784 60.4762C53.1849 60.4437 53.1881 60.395 53.1881 60.3301C53.1881 60.2976 53.1914 60.2651 53.1979 60.2327C53.2109 60.1937 53.2239 60.145 53.2369 60.0865C53.2498 60.0151 53.2596 59.9404 53.2661 59.8625C53.2726 59.778 53.2823 59.7098 53.2953 59.6579C53.3408 59.5734 53.37 59.5215 53.383 59.502C53.4025 59.4825 53.4187 59.4468 53.4317 59.3948C53.4447 59.3559 53.4609 59.3072 53.4804 59.2487C53.5064 59.1838 53.5421 59.1351 53.5876 59.1026C53.607 59.0896 53.6363 59.0669 53.6752 59.0344C53.7142 59.0019 53.7532 58.9662 53.7921 58.9272C53.8376 58.8883 53.8766 58.8558 53.909 58.8298C53.9415 58.7973 53.9643 58.7811 53.9772 58.7811L54.1526 58.7032C54.2046 58.6837 54.263 58.6707 54.3279 58.6642C54.3929 58.6512 54.4546 58.6447 54.513 58.6447L54.815 58.635C54.8475 58.635 54.8832 58.635 54.9222 58.635C54.9677 58.635 54.9969 58.6382 55.0099 58.6447C55.0424 58.6447 55.0748 58.6545 55.1073 58.6739C55.1398 58.6934 55.1723 58.7032 55.2047 58.7032C55.2372 58.7032 55.2762 58.7162 55.3216 58.7421C55.3736 58.7616 55.4158 58.7876 55.4483 58.8201C55.5132 58.8461 55.5619 58.8785 55.5944 58.9175C55.6334 58.95 55.6691 58.9824 55.7016 59.0149C55.734 59.0474 55.7633 59.0799 55.7892 59.1123C55.8217 59.1383 55.8542 59.1675 55.8867 59.2C55.8867 59.2195 55.8996 59.2357 55.9256 59.2487C55.9386 59.2552 55.9484 59.2617 55.9549 59.2682C55.9678 59.2552 55.9743 59.2292 55.9743 59.1903C55.9808 59.1513 55.9938 59.1156 56.0133 59.0831C56.0198 58.9922 56.023 58.911 56.023 58.8396C56.0295 58.7616 56.036 58.7097 56.0425 58.6837C56.036 58.6577 56.0393 58.622 56.0523 58.5765C56.0653 58.5246 56.088 58.5051 56.1205 58.5181C56.1335 58.5116 56.1627 58.5116 56.2081 58.5181C56.2536 58.5246 56.3056 58.5343 56.364 58.5473C56.4225 58.5538 56.4809 58.5603 56.5394 58.5668C56.6043 58.5733 56.6595 58.5765 56.705 58.5765C56.7115 58.5765 56.7147 58.5928 56.7147 58.6252C56.7147 58.6577 56.7115 58.6837 56.705 58.7032L56.7634 59.6384V60.6905C56.7634 60.71 56.7602 60.7295 56.7537 60.749C56.7537 60.7685 56.7537 60.7879 56.7537 60.8074C56.7602 60.8659 56.7634 60.9276 56.7634 60.9925C56.7634 61.051 56.7634 61.1127 56.7634 61.1776C56.7699 61.2231 56.7699 61.2718 56.7634 61.3238C56.7634 61.3692 56.7634 61.4179 56.7634 61.4699C56.7634 61.5088 56.7634 61.5641 56.7634 61.6355C56.7699 61.7004 56.7732 61.7686 56.7732 61.8401C56.7732 61.9115 56.7732 61.9797 56.7732 62.0447C56.7732 62.1161 56.7732 62.1745 56.7732 62.22V62.2687ZM55.5165 60.7977V60.7685C55.5165 60.7295 55.523 60.6451 55.5359 60.5152C55.5489 60.3788 55.5197 60.2132 55.4483 60.0183C55.4288 59.9664 55.3996 59.9112 55.3606 59.8527C55.3216 59.7943 55.2599 59.7488 55.1755 59.7163C55.13 59.7033 55.0878 59.6904 55.0489 59.6774C55.0099 59.6579 54.9677 59.6514 54.9222 59.6579C54.8767 59.6709 54.8183 59.7001 54.7469 59.7456C54.6819 59.791 54.6267 59.8462 54.5812 59.9112C54.5488 59.9436 54.5293 59.9794 54.5228 60.0183C54.5163 60.0573 54.5098 60.1028 54.5033 60.1547C54.4838 60.2391 54.4676 60.3041 54.4546 60.3496C54.4481 60.395 54.4449 60.4535 54.4449 60.5249C54.4449 60.6548 54.4806 60.7685 54.552 60.8659C54.6299 60.9633 54.6787 61.0282 54.6981 61.0607C54.7176 61.0802 54.7339 61.0932 54.7469 61.0997C54.7663 61.0997 54.7923 61.1159 54.8248 61.1484C54.8897 61.1809 54.9514 61.1874 55.0099 61.1679C55.0683 61.1419 55.1333 61.1127 55.2047 61.0802H55.2632C55.3216 61.0477 55.3703 61.0153 55.4093 60.9828C55.4483 60.9503 55.484 60.9016 55.5165 60.8367V60.7977ZM58.6077 62.1518C58.5038 62.1128 58.3934 62.0544 58.2765 61.9765C58.1596 61.892 58.0751 61.8303 58.0232 61.7914C57.9907 61.7589 57.9615 61.7329 57.9355 61.7134C57.916 61.6939 57.903 61.668 57.8965 61.6355C57.8511 61.5381 57.7991 61.4536 57.7407 61.3822C57.6887 61.3108 57.653 61.2296 57.6335 61.1387C57.614 61.0477 57.5945 60.9568 57.5751 60.8659C57.5621 60.7685 57.5491 60.6775 57.5361 60.5931C57.5361 60.5022 57.5328 60.4178 57.5263 60.3398C57.5199 60.2619 57.5166 60.1774 57.5166 60.0865C57.5166 59.9891 57.5199 59.9014 57.5263 59.8235C57.5393 59.7456 57.5458 59.6579 57.5458 59.5605C57.5458 59.4955 57.5426 59.4306 57.5361 59.3656C57.5361 59.2942 57.5361 59.226 57.5361 59.161V59.0247C57.5361 58.9662 57.5393 58.9078 57.5458 58.8493C57.5588 58.7844 57.5653 58.7194 57.5653 58.6545C57.6433 58.648 57.7374 58.648 57.8478 58.6545C57.9647 58.6545 58.0524 58.6545 58.1109 58.6545C58.1304 58.661 58.1726 58.661 58.2375 58.6545C58.309 58.648 58.3577 58.6447 58.3836 58.6447C58.4161 58.6447 58.4843 58.6447 58.5882 58.6447C58.6986 58.6447 58.7701 58.648 58.8025 58.6545C58.796 58.6869 58.7896 58.7162 58.7831 58.7421C58.7766 58.7681 58.7733 58.7941 58.7733 58.8201C58.7733 58.8461 58.7733 58.8655 58.7733 58.8785C58.7733 58.9694 58.7701 59.0506 58.7636 59.1221C58.7571 59.1935 58.7538 59.2682 58.7538 59.3461C58.7538 59.3851 58.7538 59.463 58.7538 59.5799C58.7603 59.6904 58.7668 59.8105 58.7733 59.9404C58.7798 60.0703 58.7863 60.1937 58.7928 60.3106C58.8058 60.421 58.8155 60.4957 58.822 60.5347C58.822 60.5996 58.822 60.6548 58.822 60.7003C58.8285 60.7392 58.835 60.7912 58.8415 60.8561C58.848 60.9276 58.8642 60.9893 58.8902 61.0412C58.9227 61.0867 58.9454 61.1159 58.9584 61.1289L59.0169 61.2848L59.1533 61.4601C59.1987 61.5186 59.2604 61.5543 59.3384 61.5673C59.4163 61.5738 59.491 61.5738 59.5624 61.5673L59.7865 61.5478C59.8384 61.5413 59.8969 61.5088 59.9618 61.4504C60.0268 61.3854 60.0852 61.3367 60.1372 61.3043C60.1697 61.2718 60.1956 61.2263 60.2151 61.1679C60.2411 61.1029 60.2638 61.038 60.2833 60.973C60.2833 60.9665 60.2898 60.9373 60.3028 60.8854C60.3158 60.8334 60.3288 60.7782 60.3418 60.7198C60.3613 60.6548 60.3742 60.5964 60.3807 60.5444C60.3937 60.4859 60.4002 60.4535 60.4002 60.447C60.4067 60.395 60.4132 60.3366 60.4197 60.2716C60.4262 60.2067 60.4262 60.1482 60.4197 60.0963C60.4067 60.0378 60.4067 59.9729 60.4197 59.9014C60.4327 59.83 60.4392 59.7618 60.4392 59.6968C60.4392 59.6449 60.4424 59.5864 60.4489 59.5215C60.4554 59.4565 60.4619 59.4078 60.4684 59.3754C60.4684 59.3819 60.4684 59.3689 60.4684 59.3364C60.4749 59.3039 60.4782 59.2682 60.4782 59.2292C60.4782 59.1903 60.4782 59.1545 60.4782 59.1221C60.4782 59.0831 60.4782 59.0604 60.4782 59.0539C60.4717 59.0149 60.4619 58.9792 60.4489 58.9467C60.4424 58.9078 60.4392 58.8688 60.4392 58.8298C60.4392 58.8103 60.4424 58.7908 60.4489 58.7714C60.4554 58.7519 60.4587 58.7324 60.4587 58.7129H60.6633C60.6892 58.7129 60.712 58.7162 60.7314 58.7227C60.7574 58.7291 60.7769 58.7324 60.7899 58.7324C60.8548 58.7324 60.91 58.7356 60.9555 58.7421C61.001 58.7421 61.0399 58.7389 61.0724 58.7324C61.1049 58.7194 61.1309 58.7162 61.1504 58.7227C61.1698 58.7227 61.1958 58.7194 61.2283 58.7129C61.2802 58.7259 61.3225 58.7291 61.3549 58.7227C61.3939 58.7097 61.4426 58.7064 61.5011 58.7129C61.5076 58.7454 61.5043 58.7908 61.4913 58.8493C61.4848 58.9078 61.4816 58.9662 61.4816 59.0247C61.4816 59.1481 61.4816 59.2747 61.4816 59.4046C61.4881 59.528 61.4881 59.6546 61.4816 59.7845C61.4751 59.856 61.4718 59.9242 61.4718 59.9891C61.4783 60.0541 61.4751 60.119 61.4621 60.1839C61.4621 60.1969 61.4621 60.2229 61.4621 60.2619C61.4621 60.2944 61.4621 60.3301 61.4621 60.369C61.4621 60.408 61.4621 60.447 61.4621 60.4859C61.4621 60.5184 61.4621 60.5379 61.4621 60.5444C61.4751 60.6158 61.4816 60.7035 61.4816 60.8074C61.4816 60.9113 61.4783 61.0218 61.4718 61.1387C61.4653 61.2491 61.4588 61.3562 61.4524 61.4601C61.4524 61.5641 61.4524 61.6517 61.4524 61.7232C61.4524 61.8206 61.4556 61.918 61.4621 62.0154C61.4686 62.1064 61.4718 62.2005 61.4718 62.2979C61.316 62.3304 61.1633 62.3434 61.014 62.3369C60.8711 62.3369 60.7217 62.3434 60.5658 62.3564C60.5464 62.3304 60.5366 62.2882 60.5366 62.2298C60.5366 62.1973 60.5334 62.1681 60.5269 62.1421C60.5269 62.1161 60.5236 62.0869 60.5171 62.0544C60.5106 62.0349 60.5074 62.0024 60.5074 61.957C60.5074 61.9375 60.5041 61.9213 60.4976 61.9083C60.4847 61.9083 60.4652 61.9245 60.4392 61.957C60.4132 61.9894 60.384 62.0122 60.3515 62.0252C60.2866 62.0576 60.2216 62.0869 60.1567 62.1128C60.0982 62.1453 60.0365 62.1681 59.9716 62.181C59.8417 62.2395 59.6988 62.272 59.5429 62.2785C59.3871 62.2914 59.2247 62.2979 59.0558 62.2979C58.9584 62.2979 58.874 62.2817 58.8025 62.2492C58.7376 62.2168 58.6727 62.1843 58.6077 62.1518ZM62.1608 60.7879C62.1608 60.7425 62.1608 60.6743 62.1608 60.5834C62.1673 60.4924 62.1673 60.4048 62.1608 60.3203C62.1673 60.2619 62.1706 60.2034 62.1706 60.145C62.1706 60.0865 62.1706 60.0248 62.1706 59.9599L62.1414 59.1708V58.7324C62.2128 58.7324 62.2875 58.7324 62.3654 58.7324C62.4434 58.7259 62.531 58.7291 62.6285 58.7421C62.6544 58.7486 62.6804 58.7519 62.7064 58.7519H62.8428C62.8882 58.7649 62.911 58.7714 62.911 58.7714C62.911 58.7649 62.9207 58.7681 62.9402 58.7811C62.9402 58.8136 62.937 58.8396 62.9305 58.859C62.924 58.872 62.9207 58.8948 62.9207 58.9272V59.239C62.9467 59.2065 62.9629 59.1805 62.9694 59.161C62.9824 59.1351 63.0051 59.1058 63.0376 59.0734L63.0961 59.0539C63.1805 58.9694 63.2844 58.9142 63.4078 58.8883C63.5312 58.8623 63.6546 58.8558 63.778 58.8688C63.804 58.8688 63.8462 58.8818 63.9047 58.9078C63.9631 58.9272 64.0216 58.9532 64.08 58.9857C64.1255 58.9922 64.1644 59.0052 64.1969 59.0247L64.2261 59.0539C64.2911 59.1123 64.3528 59.1643 64.4112 59.2098C64.4697 59.2487 64.5119 59.3007 64.5379 59.3656C64.6028 59.4565 64.6548 59.554 64.6938 59.6579C64.7327 59.7618 64.7684 59.8754 64.8009 59.9988C64.8009 60.0313 64.7977 60.0605 64.7912 60.0865C64.7847 60.1125 64.7652 60.1255 64.7327 60.1255C64.6353 60.158 64.5444 60.1742 64.4599 60.1742C64.382 60.1677 64.2748 60.171 64.1385 60.1839H64.0313C64.0183 60.1774 64.0086 60.1677 64.0021 60.1547C64.0021 60.1417 64.0021 60.132 64.0021 60.1255C63.9956 60.0865 63.9858 60.0541 63.9728 60.0281C63.9664 59.9956 63.9631 59.9696 63.9631 59.9501C63.9631 59.9371 63.9599 59.9209 63.9534 59.9014C63.9469 59.8819 63.9404 59.8657 63.9339 59.8527C63.9209 59.8332 63.9111 59.817 63.9047 59.804C63.7813 59.6806 63.6611 59.6189 63.5442 59.6189C63.5312 59.6189 63.5117 59.6189 63.4858 59.6189C63.4663 59.6189 63.4468 59.6254 63.4273 59.6384C63.3948 59.6514 63.3461 59.6741 63.2812 59.7066C63.2227 59.7326 63.1838 59.7553 63.1643 59.7748C63.1318 59.8073 63.0961 59.843 63.0571 59.8819C63.0246 59.9144 62.9987 59.9534 62.9792 59.9988C62.9727 60.0248 62.9662 60.0703 62.9597 60.1352C62.9597 60.1937 62.9597 60.2294 62.9597 60.2424C62.9467 60.3008 62.9337 60.3788 62.9207 60.4762C62.9077 60.5736 62.9012 60.6581 62.9012 60.7295C62.9012 60.775 62.8947 60.8334 62.8818 60.9048C62.8753 60.9763 62.872 61.0412 62.872 61.0997C62.872 61.1451 62.8688 61.1874 62.8623 61.2263C62.8623 61.2653 62.8623 61.3043 62.8623 61.3432V61.7134C62.8623 61.7524 62.859 61.7946 62.8525 61.8401C62.8525 61.8855 62.8525 61.931 62.8525 61.9765V62.1908C62.5278 62.2622 62.3037 62.2622 62.1803 62.1908C62.1673 62.1453 62.1576 62.0901 62.1511 62.0252C62.1446 61.9537 62.1446 61.9115 62.1511 61.8985C62.1641 61.7816 62.1673 61.6647 62.1608 61.5478C62.1544 61.4309 62.1511 61.3108 62.1511 61.1874C62.1446 61.1224 62.1446 61.0542 62.1511 60.9828C62.1576 60.9113 62.1608 60.8464 62.1608 60.7879ZM68.884 62.2687L68.8158 62.2785C68.7833 62.285 68.7606 62.285 68.7476 62.2785C68.7411 62.2785 68.7119 62.2785 68.6599 62.2785C68.6534 62.2785 68.634 62.2817 68.6015 62.2882C68.569 62.2947 68.5333 62.3012 68.4943 62.3077C68.4554 62.3142 68.4131 62.3142 68.3677 62.3077C68.3222 62.3077 68.2865 62.3012 68.2605 62.2882C68.228 62.2882 68.2053 62.285 68.1923 62.2785C68.1793 62.272 68.1566 62.2687 68.1241 62.2687C68.0917 62.2427 68.0722 62.2038 68.0657 62.1518C68.0657 62.0999 68.0657 62.0576 68.0657 62.0252V61.7816L67.9877 61.8888L67.8124 62.0544C67.7474 62.0999 67.6922 62.1356 67.6468 62.1616C67.6078 62.194 67.5591 62.2265 67.5006 62.259C67.4032 62.3174 67.2961 62.3564 67.1792 62.3759C67.0688 62.3954 66.9648 62.4051 66.8674 62.4051C66.77 62.4051 66.6661 62.3856 66.5557 62.3467C66.4518 62.3077 66.3576 62.272 66.2732 62.2395C66.2472 62.233 66.2212 62.22 66.1952 62.2005C66.1757 62.1875 66.1563 62.1745 66.1368 62.1616C66.0978 62.1291 66.0523 62.0966 66.0004 62.0641C65.9549 62.0317 65.916 61.9992 65.8835 61.9667C65.864 61.9537 65.8445 61.9407 65.825 61.9278C65.812 61.9083 65.7926 61.892 65.7666 61.879C65.7341 61.8596 65.7049 61.8271 65.6789 61.7816C65.6464 61.7102 65.6042 61.642 65.5523 61.577C65.5068 61.5056 65.4678 61.4244 65.4354 61.3335C65.4159 61.2621 65.3899 61.1939 65.3574 61.1289C65.3249 61.064 65.3087 61.0023 65.3087 60.9438C65.3087 60.9113 65.3055 60.8561 65.299 60.7782C65.2925 60.7003 65.2892 60.6451 65.2892 60.6126C65.2892 60.5541 65.2892 60.5087 65.2892 60.4762C65.2957 60.4437 65.299 60.395 65.299 60.3301C65.299 60.2976 65.3022 60.2651 65.3087 60.2327C65.3217 60.1937 65.3347 60.145 65.3477 60.0865C65.3607 60.0151 65.3704 59.9404 65.3769 59.8625C65.3834 59.778 65.3931 59.7098 65.4061 59.6579C65.4516 59.5734 65.4808 59.5215 65.4938 59.502C65.5133 59.4825 65.5295 59.4468 65.5425 59.3948C65.5555 59.3559 65.5717 59.3072 65.5912 59.2487C65.6172 59.1838 65.6529 59.1351 65.6984 59.1026C65.7179 59.0896 65.7471 59.0669 65.7861 59.0344C65.825 59.0019 65.864 58.9662 65.903 58.9272C65.9484 58.8883 65.9874 58.8558 66.0199 58.8298C66.0523 58.7973 66.0751 58.7811 66.0881 58.7811L66.2634 58.7032C66.3154 58.6837 66.3738 58.6707 66.4388 58.6642C66.5037 58.6512 66.5654 58.6447 66.6239 58.6447L66.9259 58.635C66.9583 58.635 66.9941 58.635 67.033 58.635C67.0785 58.635 67.1077 58.6382 67.1207 58.6447C67.1532 58.6447 67.1857 58.6545 67.2181 58.6739C67.2506 58.6934 67.2831 58.7032 67.3155 58.7032C67.348 58.7032 67.387 58.7162 67.4325 58.7421C67.4844 58.7616 67.5266 58.7876 67.5591 58.8201C67.624 58.8461 67.6728 58.8785 67.7052 58.9175C67.7442 58.95 67.7799 58.9824 67.8124 59.0149C67.8449 59.0474 67.8741 59.0799 67.9001 59.1123C67.9325 59.1383 67.965 59.1675 67.9975 59.2C67.9975 59.2195 68.0105 59.2357 68.0365 59.2487C68.0494 59.2552 68.0592 59.2617 68.0657 59.2682C68.0787 59.2552 68.0852 59.2292 68.0852 59.1903C68.0917 59.1513 68.1046 59.1156 68.1241 59.0831C68.1306 58.9922 68.1339 58.911 68.1339 58.8396C68.1404 58.7616 68.1469 58.7097 68.1534 58.6837C68.1469 58.6577 68.1501 58.622 68.1631 58.5765C68.1761 58.5246 68.1988 58.5051 68.2313 58.5181C68.2443 58.5116 68.2735 58.5116 68.319 58.5181C68.3644 58.5246 68.4164 58.5343 68.4748 58.5473C68.5333 58.5538 68.5917 58.5603 68.6502 58.5668C68.7151 58.5733 68.7703 58.5765 68.8158 58.5765C68.8223 58.5765 68.8255 58.5928 68.8255 58.6252C68.8255 58.6577 68.8223 58.6837 68.8158 58.7032L68.8743 59.6384V60.6905C68.8743 60.71 68.871 60.7295 68.8645 60.749C68.8645 60.7685 68.8645 60.7879 68.8645 60.8074C68.871 60.8659 68.8743 60.9276 68.8743 60.9925C68.8743 61.051 68.8743 61.1127 68.8743 61.1776C68.8808 61.2231 68.8808 61.2718 68.8743 61.3238C68.8743 61.3692 68.8743 61.4179 68.8743 61.4699C68.8743 61.5088 68.8743 61.5641 68.8743 61.6355C68.8808 61.7004 68.884 61.7686 68.884 61.8401C68.884 61.9115 68.884 61.9797 68.884 62.0447C68.884 62.1161 68.884 62.1745 68.884 62.22V62.2687ZM67.6273 60.7977V60.7685C67.6273 60.7295 67.6338 60.6451 67.6468 60.5152C67.6598 60.3788 67.6305 60.2132 67.5591 60.0183C67.5396 59.9664 67.5104 59.9112 67.4714 59.8527C67.4325 59.7943 67.3708 59.7488 67.2863 59.7163C67.2409 59.7033 67.1986 59.6904 67.1597 59.6774C67.1207 59.6579 67.0785 59.6514 67.033 59.6579C66.9876 59.6709 66.9291 59.7001 66.8577 59.7456C66.7927 59.791 66.7375 59.8462 66.6921 59.9112C66.6596 59.9436 66.6401 59.9794 66.6336 60.0183C66.6271 60.0573 66.6206 60.1028 66.6141 60.1547C66.5946 60.2391 66.5784 60.3041 66.5654 60.3496C66.5589 60.395 66.5557 60.4535 66.5557 60.5249C66.5557 60.6548 66.5914 60.7685 66.6628 60.8659C66.7408 60.9633 66.7895 61.0282 66.809 61.0607C66.8285 61.0802 66.8447 61.0932 66.8577 61.0997C66.8772 61.0997 66.9031 61.1159 66.9356 61.1484C67.0006 61.1809 67.0623 61.1874 67.1207 61.1679C67.1792 61.1419 67.2441 61.1127 67.3155 61.0802H67.374C67.4325 61.0477 67.4812 61.0153 67.5201 60.9828C67.5591 60.9503 67.5948 60.9016 67.6273 60.8367V60.7977ZM69.8418 58.7129C69.8418 58.6934 69.8385 58.6739 69.832 58.6545C69.8255 58.635 69.8255 58.6155 69.832 58.596C69.8385 58.596 69.8482 58.596 69.8612 58.596C69.8807 58.5895 69.897 58.5863 69.9099 58.5863H69.9684C70.0009 58.5798 70.0333 58.5798 70.0658 58.5863C70.0983 58.5863 70.1308 58.583 70.1632 58.5765H70.4555C70.4685 58.5765 70.4815 58.583 70.4945 58.596C70.5075 58.609 70.5172 58.6187 70.5237 58.6252L70.5432 58.7129C70.5432 58.7324 70.5464 58.7551 70.5529 58.7811C70.5659 58.8331 70.5724 58.8883 70.5724 58.9467C70.5789 58.9662 70.5821 58.9857 70.5821 59.0052C70.5821 59.0441 70.5854 59.0636 70.5919 59.0636C70.6179 59.0376 70.6373 59.0117 70.6503 58.9857C70.6633 58.9532 70.6796 58.9305 70.699 58.9175C70.7185 58.898 70.7315 58.885 70.738 58.8785C70.751 58.872 70.7607 58.8655 70.7672 58.859C70.7802 58.8525 70.7965 58.8461 70.8159 58.8396C70.8354 58.8266 70.8647 58.8071 70.9036 58.7811C70.9621 58.7486 71.014 58.7227 71.0595 58.7032C71.1115 58.6837 71.1894 58.648 71.2933 58.596C71.3128 58.5895 71.3453 58.5798 71.3907 58.5668C71.4427 58.5538 71.4979 58.5441 71.5563 58.5376C71.6148 58.5246 71.6732 58.5181 71.7317 58.5181C71.7966 58.5116 71.8518 58.5083 71.8973 58.5083C71.9687 58.5148 72.0272 58.5246 72.0727 58.5376C72.1181 58.5441 72.1798 58.5538 72.2578 58.5668C72.2902 58.5733 72.3422 58.5798 72.4136 58.5863C72.4916 58.5928 72.5435 58.6025 72.5695 58.6155C72.7319 58.7064 72.8618 58.7844 72.9592 58.8493C73.0566 58.9142 73.141 59.0019 73.2125 59.1123C73.2255 59.1253 73.2449 59.1416 73.2709 59.161C73.2969 59.174 73.3261 59.1968 73.3586 59.2292C73.3911 59.2617 73.4203 59.3072 73.4463 59.3656C73.4787 59.4176 73.495 59.4501 73.495 59.463C73.521 59.5734 73.5502 59.6644 73.5827 59.7358C73.6151 59.8008 73.6346 59.8884 73.6411 59.9988C73.6476 60.0508 73.6638 60.1093 73.6898 60.1742C73.7158 60.2327 73.7288 60.2944 73.7288 60.3593C73.7288 60.4242 73.732 60.4989 73.7385 60.5834C73.745 60.6613 73.7418 60.775 73.7288 60.9243C73.7288 60.9698 73.7288 61.012 73.7288 61.051C73.7353 61.0899 73.7385 61.1289 73.7385 61.1679V61.616C73.7385 61.6615 73.7385 61.7037 73.7385 61.7427C73.7385 61.7816 73.7353 61.8206 73.7288 61.8596C73.7288 61.9115 73.7288 61.957 73.7288 61.9959C73.7353 62.0349 73.7385 62.0804 73.7385 62.1323C73.7385 62.1453 73.7385 62.1583 73.7385 62.1713C73.7385 62.1908 73.732 62.2038 73.719 62.2103C73.7061 62.2168 73.6866 62.22 73.6606 62.22C73.6411 62.22 73.6249 62.22 73.6119 62.22C73.5534 62.22 73.4982 62.22 73.4463 62.22C73.3943 62.2265 73.3391 62.2265 73.2807 62.22L72.9884 62.1908C72.9624 62.1843 72.9267 62.1843 72.8812 62.1908C72.8358 62.1973 72.8066 62.1875 72.7936 62.1616C72.7871 62.0122 72.7838 61.9083 72.7838 61.8498C72.7903 61.7849 72.7936 61.7264 72.7936 61.6745C72.7936 61.642 72.7903 61.603 72.7838 61.5576C72.7773 61.5056 72.7708 61.4374 72.7643 61.353L72.7936 60.8367C72.7936 60.7717 72.7903 60.723 72.7838 60.6905C72.7838 60.6516 72.7806 60.6223 72.7741 60.6028C72.7741 60.5769 72.7708 60.5476 72.7643 60.5152C72.7643 60.4827 72.7643 60.4307 72.7643 60.3593C72.7643 60.2424 72.7416 60.1255 72.6961 60.0086C72.6572 59.8917 72.6085 59.7748 72.55 59.6579C72.5175 59.5929 72.4753 59.5345 72.4234 59.4825C72.3714 59.4306 72.3032 59.3851 72.2188 59.3461C72.2058 59.3396 72.1896 59.3331 72.1701 59.3267C72.1506 59.3202 72.1344 59.3169 72.1214 59.3169L71.8973 59.2974C71.7869 59.2909 71.6732 59.3104 71.5563 59.3559C71.4394 59.4013 71.368 59.4468 71.342 59.4923C71.2966 59.5702 71.2608 59.6287 71.2349 59.6676C71.2089 59.7066 71.1829 59.7456 71.1569 59.7845C71.1504 59.804 71.1407 59.8397 71.1277 59.8917C71.1147 59.9371 71.0985 59.9956 71.079 60.067C71.066 60.132 71.053 60.2034 71.04 60.2814C71.027 60.3528 71.0205 60.4178 71.0205 60.4762C71.0205 60.5217 71.0205 60.5671 71.0205 60.6126C71.0205 60.6516 71.0173 60.6905 71.0108 60.7295L70.9913 61.0023L70.9329 61.3725C70.9329 61.4374 70.9329 61.5088 70.9329 61.5868C70.9329 61.6582 70.9296 61.7264 70.9231 61.7914V62.0154C70.8841 62.0414 70.8517 62.0544 70.8257 62.0544C70.7542 62.0674 70.7023 62.0804 70.6698 62.0934C70.6438 62.1064 70.5919 62.1096 70.5139 62.1031C70.4425 62.0966 70.3483 62.0966 70.2314 62.1031C70.1145 62.1161 70.0204 62.1161 69.9489 62.1031C69.8775 62.0901 69.8418 62.0804 69.8418 62.0739C69.8418 62.0739 69.8418 62.0576 69.8418 62.0252C69.8418 61.9992 69.8418 61.9602 69.8418 61.9083C69.8482 61.8498 69.8515 61.7914 69.8515 61.7329C69.8515 61.668 69.8515 61.6063 69.8515 61.5478C69.858 61.4894 69.8612 61.4439 69.8612 61.4114C69.8612 61.2945 69.858 61.1971 69.8515 61.1192C69.845 61.0412 69.8418 60.9438 69.8418 60.8269C69.8418 60.7295 69.8385 60.6516 69.832 60.5931C69.832 60.5282 69.8288 60.447 69.8223 60.3496C69.8223 60.2976 69.8255 60.2327 69.832 60.1547C69.8385 60.0703 69.8418 59.9826 69.8418 59.8917C69.8418 59.7813 69.8385 59.6741 69.832 59.5702C69.832 59.4663 69.832 59.3884 69.832 59.3364C69.8255 59.226 69.8223 59.1221 69.8223 59.0247C69.8223 58.9207 69.8288 58.8168 69.8418 58.7129ZM76.5727 61.7914C76.5727 61.8628 76.5695 61.9375 76.563 62.0154C76.563 62.0934 76.5663 62.1681 76.5727 62.2395C76.5727 62.2785 76.5727 62.3337 76.5727 62.4051C76.5727 62.483 76.5695 62.5415 76.563 62.5805C76.5695 62.6064 76.563 62.6292 76.5435 62.6487C76.524 62.6746 76.5078 62.6941 76.4948 62.7071H76.2415C76.209 62.7071 76.1701 62.7039 76.1246 62.6974C76.0857 62.6974 76.0499 62.6974 76.0175 62.6974C75.9915 62.7104 75.9558 62.7168 75.9103 62.7168C75.8648 62.7168 75.8161 62.7168 75.7642 62.7168C75.7187 62.7168 75.6732 62.7136 75.6278 62.7071C75.5888 62.7071 75.5661 62.7071 75.5596 62.7071C75.5271 62.6746 75.5076 62.6519 75.5011 62.6389C75.5011 62.6324 75.5011 62.6129 75.5011 62.5805V61.6452L75.4817 61.0705L75.5011 60.4178L75.4914 59.8527L75.4524 59.3851C75.3745 59.3851 75.2803 59.3884 75.1699 59.3948C75.0595 59.4013 74.9751 59.3981 74.9166 59.3851C74.8062 59.3656 74.7185 59.3624 74.6536 59.3754C74.5951 59.3819 74.5204 59.3851 74.4295 59.3851V58.7616H74.488C74.5204 58.7616 74.5464 58.7616 74.5659 58.7616C74.5919 58.7551 74.6114 58.7551 74.6244 58.7616C74.6568 58.7876 74.7023 58.7973 74.7607 58.7908C74.8257 58.7779 74.8549 58.7649 74.8484 58.7519C74.9199 58.7454 74.9621 58.7421 74.9751 58.7421C74.9946 58.7421 75.0335 58.7421 75.092 58.7421C75.1439 58.7421 75.2186 58.7454 75.316 58.7519C75.42 58.7519 75.4881 58.7486 75.5206 58.7421C75.5206 58.7421 75.5206 58.7227 75.5206 58.6837C75.5206 58.6447 75.5206 58.5993 75.5206 58.5473C75.5206 58.4953 75.5206 58.4401 75.5206 58.3817C75.5206 58.3232 75.5206 58.2778 75.5206 58.2453C75.5336 58.1219 75.5401 58.0115 75.5401 57.9141C75.5466 57.8102 75.5531 57.6933 75.5596 57.5634C75.5661 57.4724 75.5693 57.3848 75.5693 57.3003C75.5693 57.2159 75.5693 57.1282 75.5693 57.0373C75.5693 56.9464 75.5726 56.836 75.5791 56.7061C75.5921 56.5697 75.5953 56.4495 75.5888 56.3456C75.5888 56.3131 75.5823 56.2937 75.5693 56.2872C75.5628 56.2742 75.5596 56.2514 75.5596 56.219C75.5596 56.1865 75.5628 56.1638 75.5693 56.1508C75.5758 56.1313 75.5953 56.1216 75.6278 56.1216C75.6862 56.1216 75.7479 56.1248 75.8129 56.1313C75.8778 56.1378 75.9395 56.141 75.998 56.141C76.0954 56.141 76.1831 56.141 76.261 56.141C76.3454 56.141 76.4136 56.1443 76.4656 56.1508C76.563 56.1638 76.6377 56.1768 76.6897 56.1898C76.6897 56.1898 76.6897 56.206 76.6897 56.2385C76.6897 56.2644 76.6897 56.3002 76.6897 56.3456C76.6897 56.3846 76.6864 56.4268 76.6799 56.4723C76.6799 56.5177 76.6799 56.5599 76.6799 56.5989C76.6734 56.7613 76.6702 56.9042 76.6702 57.0276C76.6702 57.1445 76.6734 57.2841 76.6799 57.4465C76.6799 57.5179 76.6767 57.5926 76.6702 57.6705C76.6702 57.7485 76.6734 57.8231 76.6799 57.8946C76.6799 57.9141 76.6767 57.9563 76.6702 58.0212C76.6702 58.0862 76.6669 58.1576 76.6604 58.2356C76.6539 58.307 76.6474 58.3752 76.6409 58.4401C76.6344 58.5051 76.6312 58.5473 76.6312 58.5668C76.6312 58.5993 76.6377 58.6285 76.6507 58.6545C76.6637 58.6804 76.6767 58.6934 76.6897 58.6934C76.7221 58.6934 76.7643 58.6999 76.8163 58.7129C76.8683 58.7194 76.9105 58.7227 76.9429 58.7227C76.9754 58.7227 77.0079 58.7291 77.0404 58.7421C77.0793 58.7486 77.1313 58.7519 77.1962 58.7519C77.2547 58.7519 77.3131 58.7551 77.3716 58.7616C77.4365 58.7616 77.5047 58.7616 77.5762 58.7616C77.5892 58.7616 77.6021 58.7649 77.6151 58.7714C77.6281 58.7714 77.6411 58.7714 77.6541 58.7714H77.6931C77.7255 58.8688 77.7418 58.9792 77.7418 59.1026C77.7418 59.226 77.7255 59.3202 77.6931 59.3851H77.6346C77.5047 59.3981 77.3781 59.4111 77.2547 59.4241C77.1313 59.4306 77.0046 59.4338 76.8747 59.4338C76.8423 59.4338 76.8033 59.4371 76.7578 59.4436C76.7124 59.4436 76.6734 59.4436 76.6409 59.4436C76.6409 59.4565 76.6377 59.4728 76.6312 59.4923C76.6312 59.5053 76.6312 59.5182 76.6312 59.5312V59.5702V59.6579C76.6312 59.7163 76.6312 59.7715 76.6312 59.8235C76.6377 59.869 76.6377 59.9177 76.6312 59.9696L76.6507 60.4859L76.6117 60.9243C76.6117 60.9568 76.6085 61.0153 76.602 61.0997C76.602 61.1776 76.5987 61.2653 76.5922 61.3627C76.5922 61.4536 76.589 61.5413 76.5825 61.6258C76.576 61.7037 76.5727 61.7589 76.5727 61.7914Z" fill="#EB1400"/>
<path d="M150.276 59.3436V67.5001C150.276 72.0028 146.621 75.6566 142.119 75.6566C137.617 75.6566 133.962 72.0028 133.962 67.5001V64.2376C133.962 63.5524 134.386 62.9651 135.006 62.704L135.365 62.5409H135.398C139.15 62.2799 142.706 60.9423 145.643 58.7235L148.057 57.81C148.579 57.6141 149.134 57.712 149.558 58.006C149.917 58.2342 150.145 58.6255 150.243 59.0174C150.276 59.1148 150.276 59.2456 150.276 59.3436Z" fill="#EB1400"/>
<path d="M133.962 65.8686C126.151 65.8686 118.963 61.9274 114.735 55.3302C114.249 54.5732 114.471 53.5618 115.228 53.0791C115.975 52.5928 116.99 52.8085 117.479 53.572C121.11 59.2295 127.27 62.6061 133.962 62.6061C140.654 62.6061 146.814 59.2295 150.442 53.5684C150.928 52.8085 151.946 52.5898 152.693 53.0755C153.45 53.5588 153.675 54.5702 153.186 55.3272C148.961 61.9274 141.773 65.8686 133.962 65.8686Z" fill="#161616"/>
</svg>
